<svg width="35" height="34" viewBox="0 0 35 34" fill="none" xmlns="http://www.w3.org/2000/svg">
<path d="M0.5 17C0.5 7.61116 8.11116 0 17.5 0C26.8888 0 34.5 7.61116 34.5 17C34.5 26.3888 26.8888 34 17.5 34C8.11116 34 0.5 26.3888 0.5 17Z" fill="#5145CD"/>
<g clip-path="url(#clip0_1832_280)">
<path d="M23.7222 16.2222H18.2778V10.7778C18.2778 10.5715 18.1958 10.3737 18.05 10.2278C17.9041 10.0819 17.7063 10 17.5 10C17.2937 10 17.0959 10.0819 16.95 10.2278C16.8042 10.3737 16.7222 10.5715 16.7222 10.7778V16.2222H11.2778C11.0715 16.2222 10.8737 16.3042 10.7278 16.45C10.5819 16.5959 10.5 16.7937 10.5 17C10.5 17.2063 10.5819 17.4041 10.7278 17.55C10.8737 17.6958 11.0715 17.7778 11.2778 17.7778H16.7222V23.2222C16.7222 23.4285 16.8042 23.6263 16.95 23.7722C17.0959 23.9181 17.2937 24 17.5 24C17.7063 24 17.9041 23.9181 18.05 23.7722C18.1958 23.6263 18.2778 23.4285 18.2778 23.2222V17.7778H23.7222C23.9285 17.7778 24.1263 17.6958 24.2722 17.55C24.4181 17.4041 24.5 17.2063 24.5 17C24.5 16.7937 24.4181 16.5959 24.2722 16.45C24.1263 16.3042 23.9285 16.2222 23.7222 16.2222Z" fill="white"/>
</g>
<defs>
<clipPath id="clip0_1832_280">
<rect width="14" height="14" fill="white" transform="translate(10.5 10)"/>
</clipPath>
</defs>
</svg>
