<svg width="15" height="14" viewBox="0 0 15 14" fill="none" xmlns="http://www.w3.org/2000/svg">
<path d="M12.6443 5.79607L12.8083 5.41874C13.0967 4.75122 13.6248 4.21602 14.2883 3.91874L14.7943 3.69274C14.8557 3.6645 14.9077 3.61925 14.9442 3.56236C14.9806 3.50546 15 3.43931 15 3.37174C15 3.30417 14.9806 3.23801 14.9442 3.18112C14.9077 3.12422 14.8557 3.07897 14.7943 3.05074L14.3163 2.83807C13.6361 2.53232 13.099 1.97732 12.8157 1.2874L12.647 0.88007C12.6222 0.816972 12.579 0.762802 12.523 0.72462C12.467 0.686438 12.4008 0.666016 12.333 0.666016C12.2652 0.666016 12.199 0.686438 12.143 0.72462C12.087 0.762802 12.0438 0.816972 12.019 0.88007L11.8503 1.28674C11.5673 1.97679 11.0305 2.53202 10.3503 2.83807L9.87168 3.0514C9.81047 3.07972 9.75866 3.12496 9.72234 3.18179C9.68602 3.23861 9.66672 3.30463 9.66672 3.37207C9.66672 3.43951 9.68602 3.50553 9.72234 3.56235C9.75866 3.61917 9.81047 3.66442 9.87168 3.69274L10.3783 3.91807C11.0418 4.21565 11.5696 4.75109 11.8577 5.41874L12.0217 5.79607C12.1417 6.07207 12.5237 6.07207 12.6443 5.79607ZM2.86634 10.6667H4.30234L4.70234 9.66674H6.63034L7.03034 10.6667H8.46634L6.33301 5.3334H4.99967L2.86634 10.6667ZM5.66634 7.25674L6.09701 8.3334H5.23567L5.66634 7.25674ZM8.99967 10.6667V5.3334H10.333V10.6667H8.99967ZM0.999674 2.00007C0.822863 2.00007 0.653294 2.07031 0.52827 2.19533C0.403246 2.32036 0.333008 2.48993 0.333008 2.66674V13.3334C0.333008 13.5102 0.403246 13.6798 0.52827 13.8048C0.653294 13.9298 0.822863 14.0001 0.999674 14.0001H12.9997C13.1765 14.0001 13.3461 13.9298 13.4711 13.8048C13.5961 13.6798 13.6663 13.5102 13.6663 13.3334V7.3334H12.333V12.6667H1.66634V3.3334H8.33301V2.00007H0.999674Z" fill="#8E4B10"/>
</svg>
