<svg width="32" height="79" viewBox="0 0 32 79" fill="none" xmlns="http://www.w3.org/2000/svg">
<mask id="mask0_1088_45991" style="mask-type:alpha" maskUnits="userSpaceOnUse" x="0" y="0" width="32" height="32">
<rect width="32" height="32" fill="#D9D9D9"/>
</mask>
<g mask="url(#mask0_1088_45991)">
<path d="M16.3667 20.7013C17.9222 20.7013 19.2444 20.2013 20.3333 19.2013C21.4222 18.2013 21.9667 16.9902 21.9667 15.568C21.9667 14.3013 21.5611 13.2291 20.75 12.3513C19.9389 11.4735 18.9556 11.0346 17.8 11.0346C16.7556 11.0346 15.8722 11.368 15.15 12.0346C14.4278 12.7013 14.0667 13.5235 14.0667 14.5013C14.0667 14.9235 14.15 15.3346 14.3167 15.7346C14.4833 16.1346 14.7222 16.5013 15.0333 16.8346L16.9333 14.9346C16.8667 14.8902 16.8167 14.8346 16.7833 14.768C16.75 14.7013 16.7333 14.6235 16.7333 14.5346C16.7333 14.2902 16.8333 14.0957 17.0333 13.9513C17.2333 13.8069 17.4889 13.7346 17.8 13.7346C18.2444 13.7346 18.6111 13.918 18.9 14.2846C19.1889 14.6513 19.3333 15.0902 19.3333 15.6013C19.3333 16.2902 19.05 16.8735 18.4833 17.3513C17.9167 17.8291 17.2222 18.068 16.4 18.068C15.3556 18.068 14.4722 17.6457 13.75 16.8013C13.0278 15.9569 12.6667 14.9235 12.6667 13.7013C12.6667 13.0569 12.7889 12.4402 13.0333 11.8513C13.2778 11.2624 13.6222 10.7457 14.0667 10.3013L12.1667 8.4013C11.4556 9.09019 10.9111 9.89019 10.5333 10.8013C10.1556 11.7124 9.96667 12.668 9.96667 13.668C9.96667 15.6235 10.5889 17.2846 11.8333 18.6513C13.0778 20.018 14.5889 20.7013 16.3667 20.7013ZM8 29.3346V23.6013C6.73333 22.4457 5.75 21.0957 5.05 19.5513C4.35 18.0069 4 16.3791 4 14.668C4 11.3346 5.16667 8.5013 7.5 6.16797C9.83333 3.83464 12.6667 2.66797 16 2.66797C18.7778 2.66797 21.2389 3.48464 23.3833 5.11797C25.5278 6.7513 26.9222 8.87908 27.5667 11.5013L29.3 18.3346C29.4111 18.7569 29.3333 19.1402 29.0667 19.4846C28.8 19.8291 28.4444 20.0013 28 20.0013H25.3333V24.0013C25.3333 24.7346 25.0722 25.3624 24.55 25.8846C24.0278 26.4069 23.4 26.668 22.6667 26.668H20V29.3346H17.3333V24.0013H22.6667V17.3346H26.2667L25 12.168C24.4889 10.1457 23.4 8.5013 21.7333 7.23463C20.0667 5.96797 18.1556 5.33464 16 5.33464C13.4222 5.33464 11.2222 6.23464 9.4 8.03464C7.57778 9.83464 6.66667 12.0235 6.66667 14.6013C6.66667 15.9346 6.93889 17.2013 7.48333 18.4013C8.02778 19.6013 8.8 20.668 9.8 21.6013L10.6667 22.4013V29.3346H8Z" fill="#5145CD"/>
</g>
<line x1="17.5" y1="43" x2="17.5" y2="79" stroke="#5145CD" stroke-width="3"/>
</svg>
