<svg width="33" height="32" viewBox="0 0 33 32" fill="none" xmlns="http://www.w3.org/2000/svg">
<path d="M31.8301 12.9354C30.539 6.18632 24.8738 0.912543 18.0502 0.110916C13.1897 -0.455503 8.40447 1.16535 4.93111 4.56387C1.45774 7.96558 -0.266945 12.7081 0.200224 17.5755C0.721789 23.0061 4.22395 27.9199 9.34201 30.3999C11.5147 31.4512 13.7753 31.9904 16.0648 32C16.0696 32 16.076 32 16.0824 32C17.3815 32 18.6006 31.4992 19.5157 30.5856C20.4245 29.6815 20.9236 28.4767 20.9236 27.1934V25.8238C20.9236 24.7678 21.5956 23.9997 22.5235 23.9997H26.8528C28.9247 23.9997 30.7918 22.6669 31.3901 20.7612C32.1901 18.2251 32.3373 15.5898 31.8301 12.9354ZM28.3375 19.7996C28.1535 20.3884 27.5424 20.7996 26.8528 20.7996H22.5235C19.8325 20.7996 17.7238 23.0061 17.7238 25.8238V27.1934C17.7238 27.6191 17.5575 28.0191 17.2567 28.3183C16.9447 28.6303 16.5271 28.7999 16.0824 28.7999H16.076C14.2457 28.7919 12.5002 28.3727 10.7371 27.5182C6.61739 25.523 3.80158 21.5964 3.38721 17.2699C3.01283 13.3706 4.39194 9.57204 7.17095 6.85195C9.58359 4.49027 12.7882 3.19902 16.1416 3.19902C16.6503 3.19902 17.1639 3.22942 17.6774 3.29022C23.1283 3.93025 27.6544 8.14319 28.6863 13.5354C29.0943 15.665 28.9775 17.7723 28.3375 19.7996Z" fill="#5145CD"/>
<path d="M16.2503 8.93202C17.1339 8.93202 17.8502 8.21565 17.8502 7.33196C17.8502 6.44828 17.1339 5.73191 16.2503 5.73191C15.3667 5.73191 14.6505 6.44828 14.6505 7.33196C14.6505 8.21565 15.3667 8.93202 16.2503 8.93202Z" fill="#5145CD"/>
<path d="M9.39321 9.26803C8.76765 9.89365 8.76765 10.9065 9.39321 11.5305C10.0188 12.1561 11.0315 12.1561 11.6555 11.5305C12.281 10.9049 12.281 9.89205 11.6555 9.26803C11.0315 8.64241 10.0172 8.64241 9.39321 9.26803Z" fill="#5145CD"/>
<path d="M7.32454 17.5995C8.20814 17.5995 8.92444 16.8831 8.92444 15.9995C8.92444 15.1158 8.20814 14.3994 7.32454 14.3994C6.44095 14.3994 5.72465 15.1158 5.72465 15.9995C5.72465 16.8831 6.44095 17.5995 7.32454 17.5995Z" fill="#5145CD"/>
<path d="M20.5925 9.26803C19.9669 9.89365 19.9669 10.9065 20.5925 11.5305C21.218 12.1561 22.2307 12.1561 22.8547 11.5305C23.4803 10.9049 23.4803 9.89205 22.8547 9.26803C22.2307 8.64241 21.2164 8.64241 20.5925 9.26803Z" fill="#5145CD"/>
</svg>
