<svg width="20" height="21" viewBox="0 0 20 21" fill="none" xmlns="http://www.w3.org/2000/svg">
<path d="M19.707 11.4698C17.53 13.589 13.765 14.6492 10 14.6492C6.235 14.6492 2.47 13.589 0.293 11.4698L0 11.1846V17.4333C0 17.9496 0.210714 18.4448 0.585786 18.81C0.960859 19.1751 1.46957 19.3802 2 19.3802H18C18.5304 19.3802 19.0391 19.1751 19.4142 18.81C19.7893 18.4448 20 17.9496 20 17.4333V11.1846L19.707 11.4698Z" fill="#6B7280"/>
<path d="M18 4.94075H15V3.96728C15 3.19274 14.6839 2.44992 14.1213 1.90224C13.5587 1.35456 12.7956 1.04688 12 1.04688H8C7.20435 1.04688 6.44129 1.35456 5.87868 1.90224C5.31607 2.44992 5 3.19274 5 3.96728V4.94075H2C1.46957 4.94075 0.960859 5.14587 0.585786 5.51099C0.210714 5.87612 0 6.37133 0 6.88769V8.43161L1.707 10.0933C5.35 13.6367 14.65 13.6367 18.293 10.0933L20 8.43161V6.88769C20 6.37133 19.7893 5.87612 19.4142 5.51099C19.0391 5.14587 18.5304 4.94075 18 4.94075ZM10 10.7816C9.80222 10.7816 9.60888 10.7245 9.44443 10.6175C9.27998 10.5105 9.15181 10.3585 9.07612 10.1806C9.00043 10.0027 8.98063 9.80701 9.01921 9.61818C9.0578 9.42934 9.15304 9.25589 9.29289 9.11975C9.43275 8.9836 9.61093 8.89089 9.80491 8.85333C9.99889 8.81577 10.2 8.83505 10.3827 8.90872C10.5654 8.9824 10.7216 9.10718 10.8315 9.26726C10.9414 9.42735 11 9.61556 11 9.80809C11 10.0663 10.8946 10.3139 10.7071 10.4964C10.5196 10.679 10.2652 10.7816 10 10.7816ZM13 4.94075H7V3.96728C7 3.7091 7.10536 3.4615 7.29289 3.27893C7.48043 3.09637 7.73478 2.99381 8 2.99381H12C12.2652 2.99381 12.5196 3.09637 12.7071 3.27893C12.8946 3.4615 13 3.7091 13 3.96728V4.94075Z" fill="#6B7280"/>
</svg>
