<svg width="33" height="32" viewBox="0 0 33 32" fill="none" xmlns="http://www.w3.org/2000/svg">
<g clip-path="url(#clip0_1078_12244)">
<path d="M31.9062 18.0087C28.423 21.3995 22.399 23.0957 16.375 23.0957C10.351 23.0957 4.327 21.3995 0.8438 18.0087L0.375 17.5524V27.5503C0.375 28.3764 0.712142 29.1688 1.31226 29.753C1.91237 30.3372 2.72631 30.6654 3.575 30.6654H29.175C30.0237 30.6654 30.8376 30.3372 31.4377 29.753C32.0379 29.1688 32.375 28.3764 32.375 27.5503V17.5524L31.9062 18.0087Z" fill="#5145CD"/>
<path d="M29.175 7.56223H24.375V6.00468C24.375 4.76542 23.8693 3.57691 22.9691 2.70062C22.0689 1.82433 20.848 1.33203 19.575 1.33203H13.175C11.902 1.33203 10.6811 1.82433 9.78089 2.70062C8.88071 3.57691 8.375 4.76542 8.375 6.00468V7.56223H3.575C2.72631 7.56223 1.91237 7.89043 1.31226 8.47462C0.712142 9.05882 0.375 9.85115 0.375 10.6773V13.1476L3.1062 15.8063C8.935 21.4758 23.815 21.4758 29.6438 15.8063L32.375 13.1476V10.6773C32.375 9.85115 32.0379 9.05882 31.4377 8.47462C30.8376 7.89043 30.0237 7.56223 29.175 7.56223ZM16.375 16.9075C16.0585 16.9075 15.7492 16.8162 15.4861 16.645C15.223 16.4739 15.0179 16.2306 14.8968 15.946C14.7757 15.6614 14.744 15.3483 14.8057 15.0461C14.8675 14.744 15.0199 14.4665 15.2436 14.2486C15.4674 14.0308 15.7525 13.8825 16.0629 13.8224C16.3732 13.7623 16.6949 13.7931 16.9873 13.911C17.2797 14.0289 17.5295 14.2285 17.7054 14.4847C17.8812 14.7408 17.975 15.0419 17.975 15.35C17.975 15.7631 17.8064 16.1592 17.5064 16.4513C17.2063 16.7434 16.7993 16.9075 16.375 16.9075ZM21.175 7.56223H11.575V6.00468C11.575 5.59159 11.7436 5.19542 12.0436 4.90333C12.3437 4.61123 12.7507 4.44713 13.175 4.44713H19.575C19.9993 4.44713 20.4063 4.61123 20.7064 4.90333C21.0064 5.19542 21.175 5.59159 21.175 6.00468V7.56223Z" fill="#5145CD"/>
</g>
<defs>
<clipPath id="clip0_1078_12244">
<rect width="32" height="32" fill="white" transform="translate(0.375)"/>
</clipPath>
</defs>
</svg>
