<svg width="39" height="39" viewBox="0 0 39 39" fill="none" xmlns="http://www.w3.org/2000/svg">
<path d="M19.682 14.6298C19.6213 14.6276 19.5611 14.625 19.5 14.625C16.8077 14.625 14.625 16.8077 14.625 19.5C14.625 22.1923 16.8077 24.375 19.5 24.375C22.1923 24.375 24.375 22.1923 24.375 19.5C24.375 19.4389 24.3728 19.3782 24.3698 19.318L23.4039 20.2843C22.7782 20.9101 21.9453 21.2546 21.06 21.2546C20.1756 21.2546 19.3431 20.9101 18.7157 20.2835C17.4235 18.9917 17.4235 16.8887 18.7157 15.5961L19.682 14.6298Z" fill="#5521B5"/>
<path d="M20.0945 16.9753C19.5619 17.5083 19.5619 18.3728 20.0945 18.9058C20.3606 19.1723 20.7107 19.3054 21.06 19.3054C21.4101 19.3054 21.7585 19.1719 22.0259 18.9058L29.4484 11.4837L32.5143 11.6206C32.9337 11.6388 33.2145 11.5305 33.5122 11.2332L38.4795 6.26595C39.0554 5.69005 38.8942 5.27621 38.0809 5.23981L33.9464 5.05521L33.761 0.920781C33.7246 0.107414 33.3103 -0.0533522 32.7348 0.522548L27.7675 5.48941C27.4698 5.78625 27.3611 6.06748 27.3793 6.48738L27.5166 9.55321L20.0945 16.9753Z" fill="#5521B5"/>
<path d="M37.3988 11.7576L34.6779 14.4785C35.2023 16.0585 35.49 17.7459 35.49 19.5C35.49 28.3175 28.3162 35.49 19.5 35.49C10.6834 35.49 3.51 28.317 3.51 19.5C3.51 10.683 10.683 3.51 19.5 3.51C21.2541 3.51 22.9411 3.7973 24.521 4.3225L27.2424 1.60117C24.8694 0.572433 22.2517 0 19.5 0C8.7308 0 0 8.7308 0 19.5C0 30.2692 8.7308 39 19.5 39C30.2692 39 39 30.2692 39 19.5C39 16.7483 38.428 14.131 37.3988 11.7576Z" fill="#5521B5"/>
<path d="M24.2655 8.39209C22.8026 7.76332 21.1932 7.41016 19.5002 7.41016C12.8229 7.41016 7.41016 12.8234 7.41016 19.5002C7.41016 26.177 12.8229 31.5902 19.5002 31.5902C26.177 31.5902 31.5902 26.177 31.5902 19.5002C31.5902 17.8067 31.237 16.1977 30.6074 14.7348L27.841 17.5016C27.9952 18.1434 28.0793 18.8116 28.0793 19.5002C28.0793 24.2313 24.2304 28.0802 19.4993 28.0802C14.7682 28.0802 10.9202 24.2313 10.9202 19.5002C10.9202 14.769 14.769 10.9202 19.5002 10.9202C20.1887 10.9202 20.8574 11.0038 21.4983 11.1585L24.2655 8.39209Z" fill="#5521B5"/>
</svg>
