<svg width="21" height="20" viewBox="0 0 21 20" fill="none" xmlns="http://www.w3.org/2000/svg">
<path d="M18.5 4.69168H15.5V3.72677C15.5 2.95904 15.1839 2.22275 14.6213 1.67988C14.0587 1.13701 13.2956 0.832031 12.5 0.832031H8.5C7.70435 0.832031 6.94129 1.13701 6.37868 1.67988C5.81607 2.22275 5.5 2.95904 5.5 3.72677V4.69168H2.5C1.96957 4.69168 1.46086 4.895 1.08579 5.25691C0.710714 5.61882 0.5 6.10968 0.5 6.6215V17.2355C0.5 17.7474 0.710714 18.2382 1.08579 18.6001C1.46086 18.962 1.96957 19.1654 2.5 19.1654H18.5C19.0304 19.1654 19.5391 18.962 19.9142 18.6001C20.2893 18.2382 20.5 17.7474 20.5 17.2355V6.6215C20.5 6.10968 20.2893 5.61882 19.9142 5.25691C19.5391 4.895 19.0304 4.69168 18.5 4.69168ZM7.5 3.72677C7.5 3.47086 7.60536 3.22543 7.79289 3.04447C7.98043 2.86352 8.23478 2.76186 8.5 2.76186H12.5C12.7652 2.76186 13.0196 2.86352 13.2071 3.04447C13.3946 3.22543 13.5 3.47086 13.5 3.72677V4.69168H7.5V3.72677ZM18.5 6.6215V10.0412C14.779 13.2196 6.221 13.2196 2.5 10.0412V6.6215H18.5ZM2.5 17.2355V12.4168C4.94775 13.7161 7.7069 14.3707 10.5 14.3148C13.2931 14.3705 16.0522 13.7159 18.5 12.4168V17.2355H2.5Z" fill="#5145CD"/>
<path d="M10.5 10.4812C11.0523 10.4812 11.5 10.0491 11.5 9.51624C11.5 8.98334 11.0523 8.55133 10.5 8.55133C9.94771 8.55133 9.5 8.98334 9.5 9.51624C9.5 10.0491 9.94771 10.4812 10.5 10.4812Z" fill="#5145CD"/>
</svg>
