<svg width="21" height="21" viewBox="0 0 21 21" fill="none" xmlns="http://www.w3.org/2000/svg">
<path d="M18.2227 2.34766H16.2227V1.34766C16.2227 1.08244 16.1173 0.828086 15.9298 0.640549C15.7422 0.453013 15.4879 0.347656 15.2227 0.347656C14.9574 0.347656 14.7031 0.453013 14.5155 0.640549C14.328 0.828086 14.2227 1.08244 14.2227 1.34766V2.34766H11.2227V1.34766C11.2227 1.08244 11.1173 0.828086 10.9298 0.640549C10.7422 0.453013 10.4879 0.347656 10.2227 0.347656C9.95744 0.347656 9.70309 0.453013 9.51555 0.640549C9.32801 0.828086 9.22266 1.08244 9.22266 1.34766V2.34766H6.22266V1.34766C6.22266 1.08244 6.1173 0.828086 5.92976 0.640549C5.74223 0.453013 5.48787 0.347656 5.22266 0.347656C4.95744 0.347656 4.70309 0.453013 4.51555 0.640549C4.32801 0.828086 4.22266 1.08244 4.22266 1.34766V2.34766H2.22266C1.69222 2.34766 1.18352 2.55837 0.808443 2.93344C0.43337 3.30852 0.222656 3.81722 0.222656 4.34766V18.3477C0.222656 18.8781 0.43337 19.3868 0.808443 19.7619C1.18352 20.1369 1.69222 20.3477 2.22266 20.3477H18.2227C18.7531 20.3477 19.2618 20.1369 19.6369 19.7619C20.0119 19.3868 20.2227 18.8781 20.2227 18.3477V4.34766C20.2227 3.81722 20.0119 3.30852 19.6369 2.93344C19.2618 2.55837 18.7531 2.34766 18.2227 2.34766ZM4.22266 4.34766C4.22266 4.61287 4.32801 4.86723 4.51555 5.05476C4.70309 5.2423 4.95744 5.34766 5.22266 5.34766C5.48787 5.34766 5.74223 5.2423 5.92976 5.05476C6.1173 4.86723 6.22266 4.61287 6.22266 4.34766H9.22266C9.22266 4.61287 9.32801 4.86723 9.51555 5.05476C9.70309 5.2423 9.95744 5.34766 10.2227 5.34766C10.4879 5.34766 10.7422 5.2423 10.9298 5.05476C11.1173 4.86723 11.2227 4.61287 11.2227 4.34766H14.2227C14.2227 4.61287 14.328 4.86723 14.5155 5.05476C14.7031 5.2423 14.9574 5.34766 15.2227 5.34766C15.4879 5.34766 15.7422 5.2423 15.9298 5.05476C16.1173 4.86723 16.2227 4.61287 16.2227 4.34766H18.2227V6.34766H2.22266V4.34766H4.22266ZM2.22266 18.3477V8.34766H18.2227V18.3477H2.22266Z" fill="#5145CD"/>
<path d="M15.2227 10.3477H5.22266C4.95744 10.3477 4.70309 10.453 4.51555 10.6405C4.32801 10.8281 4.22266 11.0824 4.22266 11.3477C4.22266 11.6129 4.32801 11.8672 4.51555 12.0548C4.70309 12.2423 4.95744 12.3477 5.22266 12.3477H15.2227C15.4879 12.3477 15.7422 12.2423 15.9298 12.0548C16.1173 11.8672 16.2227 11.6129 16.2227 11.3477C16.2227 11.0824 16.1173 10.8281 15.9298 10.6405C15.7422 10.453 15.4879 10.3477 15.2227 10.3477Z" fill="#5145CD"/>
</svg>
