<svg width="20" height="21" viewBox="0 0 20 21" fill="none" xmlns="http://www.w3.org/2000/svg">
<path d="M18 2.82422H16V1.82422C16 1.559 15.8946 1.30465 15.7071 1.11711C15.5196 0.929576 15.2652 0.824219 15 0.824219C14.7348 0.824219 14.4804 0.929576 14.2929 1.11711C14.1054 1.30465 14 1.559 14 1.82422V2.82422H11V1.82422C11 1.559 10.8946 1.30465 10.7071 1.11711C10.5196 0.929576 10.2652 0.824219 10 0.824219C9.73478 0.824219 9.48043 0.929576 9.29289 1.11711C9.10536 1.30465 9 1.559 9 1.82422V2.82422H6V1.82422C6 1.559 5.89464 1.30465 5.70711 1.11711C5.51957 0.929576 5.26522 0.824219 5 0.824219C4.73478 0.824219 4.48043 0.929576 4.29289 1.11711C4.10536 1.30465 4 1.559 4 1.82422V2.82422H2C1.46957 2.82422 0.960859 3.03493 0.585786 3.41001C0.210714 3.78508 0 4.29379 0 4.82422V18.8242C0 19.3547 0.210714 19.8634 0.585786 20.2384C0.960859 20.6135 1.46957 20.8242 2 20.8242H18C18.5304 20.8242 19.0391 20.6135 19.4142 20.2384C19.7893 19.8634 20 19.3547 20 18.8242V4.82422C20 4.29379 19.7893 3.78508 19.4142 3.41001C19.0391 3.03493 18.5304 2.82422 18 2.82422ZM4 4.82422C4 5.08944 4.10536 5.34379 4.29289 5.53133C4.48043 5.71886 4.73478 5.82422 5 5.82422C5.26522 5.82422 5.51957 5.71886 5.70711 5.53133C5.89464 5.34379 6 5.08944 6 4.82422H9C9 5.08944 9.10536 5.34379 9.29289 5.53133C9.48043 5.71886 9.73478 5.82422 10 5.82422C10.2652 5.82422 10.5196 5.71886 10.7071 5.53133C10.8946 5.34379 11 5.08944 11 4.82422H14C14 5.08944 14.1054 5.34379 14.2929 5.53133C14.4804 5.71886 14.7348 5.82422 15 5.82422C15.2652 5.82422 15.5196 5.71886 15.7071 5.53133C15.8946 5.34379 16 5.08944 16 4.82422H18V6.82422H2V4.82422H4ZM2 18.8242V8.82422H18V18.8242H2Z" fill="#6B7280"/>
<path d="M15 10.8242H5C4.73478 10.8242 4.48043 10.9296 4.29289 11.1171C4.10536 11.3046 4 11.559 4 11.8242C4 12.0894 4.10536 12.3438 4.29289 12.5313C4.48043 12.7189 4.73478 12.8242 5 12.8242H15C15.2652 12.8242 15.5196 12.7189 15.7071 12.5313C15.8946 12.3438 16 12.0894 16 11.8242C16 11.559 15.8946 11.3046 15.7071 11.1171C15.5196 10.9296 15.2652 10.8242 15 10.8242Z" fill="#6B7280"/>
</svg>
