<svg width="24" height="25" viewBox="0 0 24 25" fill="none" xmlns="http://www.w3.org/2000/svg">
<path d="M8.50998 2.5H15.49C15.722 2.5 15.9 2.5 16.056 2.515C17.164 2.624 18.071 3.29 18.456 4.187H5.54398C5.92898 3.29 6.83598 2.624 7.94398 2.515C8.09798 2.5 8.27598 2.5 8.50998 2.5ZM6.30998 5.223C4.91998 5.223 3.77998 6.063 3.39998 7.177L3.37598 7.247C3.77398 7.127 4.18898 7.047 4.60798 6.994C5.68798 6.855 7.05398 6.855 8.63998 6.855H15.532C17.118 6.855 18.483 6.855 19.564 6.994C19.984 7.048 20.398 7.126 20.796 7.247L20.773 7.177C20.393 6.063 19.253 5.223 17.862 5.223H6.30998Z" fill="white"/>
<path fill-rule="evenodd" clip-rule="evenodd" d="M8.67233 8.04199H15.3283C18.7023 8.04199 20.3903 8.04199 21.3383 9.02899C22.2863 10.016 22.0623 11.54 21.6163 14.589L21.1943 17.481C20.8443 19.872 20.6693 21.068 19.7723 21.784C18.8753 22.5 17.5523 22.5 14.9053 22.5H9.09533C6.44933 22.5 5.12533 22.5 4.22833 21.784C3.33133 21.068 3.15633 19.872 2.80633 17.481L2.38433 14.59C1.93733 11.54 1.71433 10.016 2.66233 9.02899C3.61033 8.04199 5.29833 8.04199 8.67233 8.04199ZM8.00033 18.5C8.00033 18.086 8.37333 17.75 8.83333 17.75H15.1673C15.6273 17.75 16.0003 18.086 16.0003 18.5C16.0003 18.914 15.6273 19.25 15.1673 19.25H8.83333C8.37333 19.25 8.00033 18.914 8.00033 18.5Z" fill="white"/>
</svg>
