<svg width="12" height="12" viewBox="0 0 12 12" fill="none" xmlns="http://www.w3.org/2000/svg">
<path d="M4.08571 0.514648H7.91449C8.04175 0.514648 8.13939 0.514648 8.22496 0.522877C8.83274 0.582667 9.33026 0.947992 9.54145 1.44003H2.45876C2.66994 0.947992 3.16746 0.582667 3.77524 0.522877C3.85972 0.514648 3.95736 0.514648 4.08571 0.514648ZM2.87893 2.00831C2.11647 2.00831 1.49114 2.46908 1.2827 3.08015L1.26953 3.11855C1.48785 3.05272 1.71549 3.00884 1.94533 2.97977C2.53775 2.90352 3.28705 2.90352 4.15702 2.90352H7.93753C8.80751 2.90352 9.55626 2.90352 10.1492 2.97977C10.3796 3.00939 10.6067 3.05217 10.825 3.11855L10.8124 3.08015C10.604 2.46908 9.97863 2.00831 9.21562 2.00831H2.87893Z" fill="#1E429F"/>
<path fill-rule="evenodd" clip-rule="evenodd" d="M4.17466 3.55469H7.82571C9.67647 3.55469 10.6024 3.55469 11.1224 4.09609C11.6424 4.6375 11.5196 5.47347 11.2749 7.14595L11.0434 8.73232C10.8514 10.0439 10.7554 10.6999 10.2634 11.0927C9.77137 11.4854 9.04566 11.4854 7.59368 11.4854H4.40669C2.95526 11.4854 2.229 11.4854 1.73697 11.0927C1.24493 10.6999 1.14894 10.0439 0.956949 8.73232L0.725467 7.1465C0.480271 5.47347 0.357948 4.6375 0.87796 4.09609C1.39797 3.55469 2.3239 3.55469 4.17466 3.55469ZM3.80604 9.29127C3.80604 9.06418 4.01065 8.87987 4.26297 8.87987H7.7374C7.98972 8.87987 8.19433 9.06418 8.19433 9.29127C8.19433 9.51837 7.98972 9.70268 7.7374 9.70268H4.26297C4.01065 9.70268 3.80604 9.51837 3.80604 9.29127Z" fill="#1E429F"/>
</svg>
