<svg width="24" height="24" viewBox="0 0 24 24" fill="none" xmlns="http://www.w3.org/2000/svg">
<path fill-rule="evenodd" clip-rule="evenodd" d="M21.2926 21.1608L20.2143 17.1393C20.1524 16.9139 20.1834 16.6708 20.2894 16.4587C21.2307 14.5717 21.5445 12.3179 20.9656 9.96687C20.1789 6.78503 17.6953 4.23071 14.5223 3.38664C13.6562 3.16126 12.8033 3.05078 11.9769 3.05078C6.04626 3.05078 1.41491 8.61459 3.01467 14.8059C3.7571 17.6696 6.81521 20.6349 9.69212 21.3331C10.4699 21.5231 11.2344 21.6115 11.9769 21.6115C13.5722 21.6115 15.0659 21.2005 16.3784 20.4935C16.5242 20.4139 16.6878 20.3697 16.8469 20.3697C16.9264 20.3697 17.0059 20.3786 17.0855 20.4007L21.0009 21.448C21.023 21.4524 21.0451 21.4569 21.0628 21.4569C21.213 21.4569 21.3324 21.3154 21.2926 21.1608ZM18.9769 17.4707L19.5868 19.7466L17.4169 19.1677C17.2313 19.1191 17.0413 19.0926 16.8469 19.0926C16.4756 19.0926 16.1 19.1898 15.7641 19.371C14.5842 20.0074 13.3115 20.33 11.9769 20.33C11.3184 20.33 10.6511 20.246 9.99263 20.0869C7.55764 19.4947 4.87517 16.8785 4.25647 14.4833C3.61127 11.982 4.11948 9.41447 5.64853 7.43907C7.17758 5.46368 9.48442 4.33236 11.9769 4.33236C12.7105 4.33236 13.4573 4.42958 14.1953 4.62845C16.922 5.3532 19.0388 7.51862 19.7238 10.2762C20.2055 12.2207 20.0066 14.1607 19.1448 15.8886C18.8974 16.3836 18.8355 16.9448 18.9769 17.4707Z" fill="#333333"/>
<path fill-rule="evenodd" clip-rule="evenodd" d="M3.36363 14.7171C1.82338 8.75589 6.27838 3.40684 11.9814 3.40684C12.7757 3.40684 13.5982 3.51298 14.4363 3.73098C17.482 4.54154 19.869 6.99557 20.6247 10.0525C21.1831 12.3204 20.8797 14.4876 19.9758 16.2999C19.8344 16.5825 19.7886 16.9151 19.8755 17.2327C19.8756 17.233 19.8757 17.2334 19.8758 17.2337L20.8995 21.0517L17.1852 20.0582C17.1847 20.058 17.1841 20.0578 17.1835 20.0577C17.0686 20.026 16.957 20.0143 16.8514 20.0143C16.6282 20.0143 16.4069 20.0756 16.2134 20.181C14.95 20.8615 13.5143 21.2561 11.9814 21.2561C11.2674 21.2561 10.5312 21.1711 9.78109 20.9878L9.78056 20.9877C8.41939 20.6573 6.98991 19.7816 5.80585 18.6271C4.62169 17.4725 3.71434 16.0697 3.36363 14.7171ZM11.9814 4.68842C9.59913 4.68842 7.39613 5.7687 5.93439 7.65713C4.47522 9.54225 3.98671 11.9958 4.60546 14.3946C4.89378 15.5108 5.67479 16.7094 6.6965 17.707C7.71784 18.7042 8.94293 19.4646 10.081 19.7415C10.714 19.8944 11.3531 19.9745 11.9814 19.9745C13.2567 19.9745 14.4714 19.6667 15.5998 19.0582C15.9855 18.8501 16.4189 18.7371 16.8514 18.7371C17.0785 18.7371 17.2989 18.7681 17.5116 18.8238L17.5132 18.8243L19.0884 19.2445L18.6379 17.5634C18.473 16.9503 18.5462 16.2998 18.8312 15.7298C19.6534 14.081 19.8452 12.2281 19.383 10.3623C18.7289 7.7291 16.7083 5.66362 14.1085 4.97257L14.1073 4.97225C13.3993 4.78149 12.6836 4.68842 11.9814 4.68842Z" fill="#333333"/>
<path fill-rule="evenodd" clip-rule="evenodd" d="M11.9814 2.69531C5.82322 2.69531 1.01554 8.47382 2.67475 14.8952C3.0665 16.4063 4.05946 17.9181 5.30913 19.1366C6.55882 20.3551 8.09663 21.311 9.61221 21.679C10.4177 21.8758 11.2106 21.9676 11.9814 21.9676C13.6389 21.9676 15.1902 21.5404 16.5517 20.807L16.5533 20.8061C16.6513 20.7526 16.7566 20.7258 16.8514 20.7258C16.9043 20.7258 16.9512 20.7316 16.9948 20.7438L20.9245 21.7949L20.9357 21.7972L20.9388 21.7978C20.955 21.8012 21.0113 21.8129 21.0673 21.8129C21.4392 21.8129 21.742 21.4627 21.6417 21.0725L20.5625 17.0474L20.5619 17.0454C20.5254 16.9125 20.5417 16.7591 20.6123 16.6178C21.5908 14.6562 21.9148 12.3158 21.3155 9.88178C20.498 6.57537 17.9182 3.92095 14.6183 3.04313L14.6165 3.04264C13.7226 2.81005 12.8396 2.69531 11.9814 2.69531ZM11.9814 3.40684C6.27838 3.40684 1.82338 8.75589 3.36363 14.7171C3.71434 16.0697 4.62169 17.4725 5.80585 18.6271C6.98991 19.7816 8.41939 20.6573 9.78056 20.9877L9.78109 20.9878C10.5312 21.1711 11.2674 21.2561 11.9814 21.2561C13.5143 21.2561 14.95 20.8615 16.2134 20.181C16.4069 20.0756 16.6282 20.0143 16.8514 20.0143C16.957 20.0143 17.0686 20.026 17.1835 20.0577L17.1852 20.0582L20.8995 21.0517L19.8758 17.2337L19.8755 17.2327C19.7886 16.9151 19.8344 16.5825 19.9758 16.2999C20.8797 14.4876 21.1831 12.3204 20.6247 10.0525C19.869 6.99557 17.482 4.54154 14.4363 3.73098C13.5982 3.51298 12.7757 3.40684 11.9814 3.40684Z" fill="#333333"/>
</svg>
