<svg width="51" height="51" viewBox="0 0 51 51" fill="none" xmlns="http://www.w3.org/2000/svg">
<path d="M25.4999 40.7681C21.7202 40.7707 18.0743 39.3688 15.2701 36.8344C12.4659 34.3001 10.7034 30.8143 10.3247 27.0536C9.94607 23.2928 10.9783 19.5256 13.221 16.4831C15.4637 13.4407 18.7569 11.34 22.4613 10.5891C26.1656 9.83808 30.0169 10.4903 33.2674 12.4192C36.518 14.348 38.9358 17.4158 40.0517 21.0271C41.1675 24.6384 40.9017 28.5354 39.3059 31.9617C37.7101 35.3881 34.8981 38.0992 31.4158 39.5688C29.5443 40.3615 27.5323 40.7694 25.4999 40.7681ZM25.4999 11.8663C22.7998 11.8653 20.16 12.665 17.9146 14.1645C15.6691 15.6639 13.9187 17.7956 12.885 20.29C11.8512 22.7843 11.5804 25.5292 12.1069 28.1775C12.6334 30.8257 13.9336 33.2584 15.8428 35.1676C17.7521 37.0769 20.1847 38.377 22.8329 38.9035C25.4812 39.43 28.2261 39.1592 30.7204 38.1254C33.2148 37.0917 35.3465 35.3413 36.8459 33.0958C38.3454 30.8504 39.1451 28.2106 39.1441 25.5105C39.1398 21.8932 37.7009 18.4252 35.1431 15.8674C32.5852 13.3095 29.1172 11.8706 25.4999 11.8663Z" fill="white"/>
<path d="M30.1144 50.5H20.8856C20.6717 50.5 20.4665 50.415 20.3152 50.2637C20.1639 50.1124 20.0789 49.9072 20.0789 49.6933V45.9932C18.2456 45.5153 16.4853 44.7917 14.846 43.8419L12.2323 46.4557C12.1573 46.5313 12.0681 46.5913 11.9698 46.6323C11.8715 46.6732 11.766 46.6943 11.6595 46.6943C11.553 46.6943 11.4476 46.6732 11.3493 46.6323C11.251 46.5913 11.1618 46.5313 11.0868 46.4557L4.56853 39.9213C4.49292 39.8463 4.4329 39.7571 4.39194 39.6588C4.35099 39.5605 4.3299 39.455 4.3299 39.3486C4.3299 39.2421 4.35099 39.1366 4.39194 39.0383C4.4329 38.94 4.49292 38.8508 4.56853 38.7758L7.18227 36.162C6.23377 34.5202 5.51022 32.7584 5.03104 30.9238H1.29866C1.0847 30.9238 0.879512 30.8388 0.728224 30.6875C0.576936 30.5362 0.491943 30.331 0.491943 30.1171V20.8991C0.491943 20.6851 0.576936 20.4799 0.728224 20.3286C0.879512 20.1773 1.0847 20.0923 1.29866 20.0923H4.99877C5.47795 18.2578 6.2015 16.4959 7.15 14.8541L4.53626 12.2403C4.46065 12.1654 4.40063 12.0761 4.35968 11.9778C4.31872 11.8795 4.29763 11.7741 4.29763 11.6676C4.29763 11.5611 4.31872 11.4556 4.35968 11.3573C4.40063 11.259 4.46065 11.1698 4.53626 11.0948L11.0868 4.57658C11.1618 4.50097 11.251 4.44096 11.3493 4.4C11.4476 4.35905 11.553 4.33796 11.6595 4.33796C11.766 4.33796 11.8715 4.35905 11.9698 4.4C12.0681 4.44096 12.1573 4.50097 12.2323 4.57658L14.846 7.19033C16.4853 6.24056 18.2456 5.51692 20.0789 5.0391V1.30671C20.0789 1.09276 20.1639 0.887568 20.3152 0.73628C20.4665 0.584993 20.6717 0.5 20.8856 0.5H30.1144C30.3284 0.5 30.5335 0.584993 30.6848 0.73628C30.8361 0.887568 30.9211 1.09276 30.9211 1.30671V5.00683C32.7544 5.48465 34.5147 6.20829 36.154 7.15806L38.7677 4.54432C38.8427 4.4687 38.9319 4.40869 39.0303 4.36773C39.1286 4.32678 39.234 4.30569 39.3405 4.30569C39.447 4.30569 39.5524 4.32678 39.6507 4.36773C39.749 4.40869 39.8383 4.4687 39.9133 4.54432L46.4315 11.0948C46.5071 11.1698 46.5671 11.259 46.6081 11.3573C46.649 11.4556 46.6701 11.5611 46.6701 11.6676C46.6701 11.7741 46.649 11.8795 46.6081 11.9778C46.5671 12.0761 46.5071 12.1654 46.4315 12.2403L43.8177 14.8541C44.7663 16.4959 45.4898 18.2578 45.969 20.0923H49.7014C49.9153 20.0923 50.1205 20.1773 50.2718 20.3286C50.4231 20.4799 50.5081 20.6851 50.5081 20.8991V30.1171C50.5081 30.331 50.4231 30.5362 50.2718 30.6875C50.1205 30.8388 49.9153 30.9238 49.7014 30.9238H45.9851C45.5059 32.7584 44.7824 34.5202 43.8339 36.162L46.4476 38.7758C46.5232 38.8508 46.5833 38.94 46.6242 39.0383C46.6652 39.1366 46.6863 39.2421 46.6863 39.3486C46.6863 39.455 46.6652 39.5605 46.6242 39.6588C46.5833 39.7571 46.5232 39.8463 46.4476 39.9213L39.9133 46.4395C39.8383 46.5152 39.749 46.5752 39.6507 46.6161C39.5524 46.6571 39.447 46.6782 39.3405 46.6782C39.234 46.6782 39.1286 46.6571 39.0303 46.6161C38.9319 46.5752 38.8427 46.5152 38.7677 46.4395L36.154 43.8258C34.5147 44.7756 32.7544 45.4992 30.9211 45.977V49.7094C30.9169 49.9206 30.83 50.1216 30.6792 50.2695C30.5284 50.4173 30.3256 50.5 30.1144 50.5ZM21.6923 48.8866H29.3077V45.3586C29.3088 45.1767 29.3708 45.0005 29.4839 44.8582C29.597 44.7158 29.7547 44.6155 29.9315 44.5734C32.0263 44.0909 34.0257 43.262 35.8474 42.121C36.002 42.0247 36.1848 41.9839 36.3657 42.0054C36.5465 42.0269 36.7147 42.1094 36.8424 42.2393L39.3378 44.7293L44.7159 39.3512L42.2312 36.8558C42.1014 36.7281 42.0189 36.56 41.9974 36.3791C41.9759 36.1983 42.0166 36.0155 42.1129 35.8609C43.2518 34.038 44.0805 32.0389 44.5653 29.945C44.6075 29.7667 44.7084 29.6077 44.8517 29.4936C44.9951 29.3795 45.1726 29.3169 45.3559 29.3157H48.8785V21.7058H45.3559C45.1726 21.7047 44.9951 21.642 44.8517 21.5279C44.7084 21.4138 44.6075 21.2548 44.5653 21.0765C44.0805 18.9826 43.2518 16.9835 42.1129 15.1606C42.0166 15.006 41.9759 14.8233 41.9974 14.6424C42.0189 14.4615 42.1014 14.2934 42.2312 14.1657L44.7213 11.6756L39.3432 6.29757L36.8478 8.77686C36.72 8.90672 36.5519 8.98919 36.3711 9.0107C36.1902 9.03221 36.0074 8.99146 35.8528 8.89518C34.0311 7.75409 32.0317 6.92522 29.9369 6.44278C29.76 6.40063 29.6024 6.30035 29.4893 6.15798C29.3762 6.01561 29.3141 5.83941 29.3131 5.65758V2.12956H21.6923V5.65758C21.6913 5.83941 21.6292 6.01561 21.5161 6.15798C21.403 6.30035 21.2454 6.40063 21.0685 6.44278C18.9737 6.92522 16.9743 7.75409 15.1526 8.89518C14.998 8.99146 14.8152 9.03221 14.6343 9.0107C14.4535 8.98919 14.2854 8.90672 14.1576 8.77686L11.6622 6.28681L6.28413 11.6649L8.77418 14.1549C8.90404 14.2827 8.98651 14.4508 9.00802 14.6316C9.02953 14.8125 8.98878 14.9953 8.8925 15.1499C7.75364 16.9727 6.92493 18.9718 6.4401 21.0658C6.39791 21.2441 6.29704 21.4031 6.15367 21.5172C6.0103 21.6313 5.83275 21.6939 5.64952 21.695H2.1215V29.3104H5.64414C5.82737 29.3115 6.00492 29.3741 6.14829 29.4882C6.29166 29.6023 6.39253 29.7613 6.43472 29.9396C6.91956 32.0336 7.74826 34.0326 8.88713 35.8555C8.98341 36.0101 9.02415 36.1929 9.00264 36.3737C8.98114 36.5546 8.89866 36.7227 8.76881 36.8504L6.27876 39.3405L11.6568 44.7186L14.1523 42.2285C14.28 42.0987 14.4481 42.0162 14.629 41.9947C14.8098 41.9732 14.9926 42.0139 15.1472 42.1102C16.9689 43.2513 18.9684 44.0802 21.0631 44.5626C21.24 44.6047 21.3976 44.705 21.5107 44.8474C21.6238 44.9898 21.6859 45.166 21.687 45.3478L21.6923 48.8866Z" fill="white"/>
<path d="M19.6108 30.6826C19.1694 30.6826 18.7378 30.5517 18.3708 30.3064C18.0038 30.0612 17.7177 29.7126 17.5488 29.3048C17.3798 28.8969 17.3356 28.4482 17.4218 28.0152C17.5079 27.5823 17.7204 27.1846 18.0326 26.8725C18.3447 26.5603 18.7424 26.3478 19.1754 26.2616C19.6083 26.1755 20.0571 26.2197 20.4649 26.3886C20.8727 26.5576 21.2213 26.8436 21.4665 27.2107C21.7118 27.5777 21.8427 28.0092 21.8427 28.4507C21.8427 29.0426 21.6075 29.6103 21.189 30.0288C20.7704 30.4474 20.2027 30.6826 19.6108 30.6826ZM19.6108 27.8376C19.4882 27.8376 19.3684 27.874 19.2666 27.9422C19.1648 28.0104 19.0855 28.1073 19.0389 28.2206C18.9922 28.3339 18.9803 28.4586 19.0046 28.5787C19.0289 28.6988 19.0884 28.809 19.1754 28.8953C19.2624 28.9815 19.3731 29.04 19.4935 29.0633C19.6138 29.0865 19.7383 29.0735 19.8512 29.0259C19.9641 28.9782 20.0603 28.8981 20.1277 28.7957C20.195 28.6933 20.2303 28.5732 20.2293 28.4507C20.2293 28.3697 20.2132 28.2895 20.1821 28.2148C20.1509 28.14 20.1053 28.0722 20.0478 28.0152C19.9903 27.9582 19.9221 27.9132 19.8471 27.8827C19.772 27.8522 19.6917 27.8368 19.6108 27.8376Z" fill="white"/>
<path d="M31.416 24.7919C30.9741 24.793 30.5418 24.6629 30.174 24.418C29.8061 24.1732 29.5192 23.8247 29.3496 23.4166C29.18 23.0086 29.1354 22.5594 29.2213 22.1259C29.3073 21.6925 29.5199 21.2943 29.8324 20.9818C30.1449 20.6694 30.543 20.4567 30.9765 20.3708C31.4099 20.2848 31.8591 20.3295 32.2672 20.499C32.6752 20.6686 33.0237 20.9555 33.2686 21.3234C33.5134 21.6913 33.6435 22.1235 33.6425 22.5654C33.6411 23.1555 33.406 23.721 32.9888 24.1382C32.5715 24.5555 32.006 24.7905 31.416 24.7919ZM31.416 21.9469C31.2934 21.9459 31.1733 21.9812 31.0709 22.0485C30.9685 22.1158 30.8884 22.2121 30.8407 22.325C30.7931 22.4379 30.7801 22.5624 30.8033 22.6827C30.8266 22.8031 30.8851 22.9138 30.9713 23.0008C31.0576 23.0878 31.1678 23.1473 31.2879 23.1716C31.408 23.1959 31.5327 23.1839 31.646 23.1373C31.7593 23.0906 31.8562 23.0114 31.9244 22.9096C31.9926 22.8077 32.0291 22.688 32.0291 22.5654C32.0291 22.4023 31.9646 22.2458 31.8498 22.13C31.735 22.0141 31.5791 21.9483 31.416 21.9469Z" fill="white"/>
<path d="M25.5 27.7343C25.0596 27.7343 24.6291 27.6037 24.263 27.3591C23.8968 27.1144 23.6114 26.7667 23.4429 26.3598C23.2744 25.953 23.2303 25.5053 23.3162 25.0734C23.4021 24.6415 23.6142 24.2448 23.9256 23.9334C24.237 23.622 24.6337 23.4099 25.0656 23.324C25.4975 23.2381 25.9452 23.2822 26.352 23.4507C26.7589 23.6193 27.1066 23.9046 27.3513 24.2708C27.5959 24.6369 27.7265 25.0674 27.7265 25.5078C27.7265 26.0983 27.4919 26.6646 27.0744 27.0822C26.6568 27.4997 26.0905 27.7343 25.5 27.7343ZM25.5 24.8947C25.3787 24.8947 25.2602 24.9306 25.1593 24.998C25.0585 25.0654 24.9799 25.1611 24.9335 25.2732C24.8871 25.3852 24.875 25.5085 24.8986 25.6274C24.9223 25.7463 24.9807 25.8556 25.0664 25.9413C25.1522 26.027 25.2614 26.0854 25.3804 26.1091C25.4993 26.1328 25.6226 26.1206 25.7346 26.0742C25.8466 26.0278 25.9424 25.9492 26.0097 25.8484C26.0771 25.7476 26.1131 25.629 26.1131 25.5078C26.1131 25.3452 26.0485 25.1892 25.9335 25.0742C25.8185 24.9593 25.6626 24.8947 25.5 24.8947Z" fill="white"/>
<path d="M25.5002 24.8947C25.2862 24.8947 25.081 24.8097 24.9298 24.6584C24.7785 24.5071 24.6935 24.3019 24.6935 24.088V17.3223C24.6935 17.1084 24.7785 16.9032 24.9298 16.7519C25.081 16.6006 25.2862 16.5156 25.5002 16.5156C25.7141 16.5156 25.9193 16.6006 26.0706 16.7519C26.2219 16.9032 26.3069 17.1084 26.3069 17.3223V24.088C26.3069 24.3019 26.2219 24.5071 26.0706 24.6584C25.9193 24.8097 25.7141 24.8947 25.5002 24.8947Z" fill="white"/>
<path d="M31.4161 21.9475C31.2021 21.9475 30.9969 21.8625 30.8457 21.7112C30.6944 21.5599 30.6094 21.3547 30.6094 21.1408V17.3223C30.6094 17.1084 30.6944 16.9032 30.8457 16.7519C30.9969 16.6006 31.2021 16.5156 31.4161 16.5156C31.63 16.5156 31.8352 16.6006 31.9865 16.7519C32.1378 16.9032 32.2228 17.1084 32.2228 17.3223V21.1408C32.2228 21.3547 32.1378 21.5599 31.9865 21.7112C31.8352 21.8625 31.63 21.9475 31.4161 21.9475Z" fill="white"/>
<path d="M19.6109 34.5022C19.397 34.5022 19.1918 34.4172 19.0405 34.2659C18.8892 34.1146 18.8042 33.9094 18.8042 33.6955V29.877C18.8042 29.6631 18.8892 29.4579 19.0405 29.3066C19.1918 29.1553 19.397 29.0703 19.6109 29.0703C19.8249 29.0703 20.0301 29.1553 20.1814 29.3066C20.3327 29.4579 20.4177 29.6631 20.4177 29.877V33.6955C20.4177 33.9094 20.3327 34.1146 20.1814 34.2659C20.0301 34.4172 19.8249 34.5022 19.6109 34.5022Z" fill="white"/>
<path d="M25.5002 34.5001C25.2862 34.5001 25.081 34.4151 24.9298 34.2639C24.7785 34.1126 24.6935 33.9074 24.6935 33.6934V26.9278C24.6935 26.7139 24.7785 26.5087 24.9298 26.3574C25.081 26.2061 25.2862 26.1211 25.5002 26.1211C25.7141 26.1211 25.9193 26.2061 26.0706 26.3574C26.2219 26.5087 26.3069 26.7139 26.3069 26.9278V33.6934C26.3069 33.9074 26.2219 34.1126 26.0706 34.2639C25.9193 34.4151 25.7141 34.5001 25.5002 34.5001Z" fill="white"/>
<path d="M31.4161 34.501C31.2021 34.501 30.9969 34.416 30.8457 34.2647C30.6944 34.1134 30.6094 33.9082 30.6094 33.6943V24.0137C30.6094 23.7998 30.6944 23.5946 30.8457 23.4433C30.9969 23.292 31.2021 23.207 31.4161 23.207C31.63 23.207 31.8352 23.292 31.9865 23.4433C32.1378 23.5946 32.2228 23.7998 32.2228 24.0137V33.6943C32.2228 33.9082 32.1378 34.1134 31.9865 34.2647C31.8352 34.416 31.63 34.501 31.4161 34.501Z" fill="white"/>
<path d="M19.6109 27.833C19.397 27.833 19.1918 27.748 19.0405 27.5967C18.8892 27.4455 18.8042 27.2403 18.8042 27.0263V17.3458C18.8042 17.1318 18.8892 16.9266 19.0405 16.7753C19.1918 16.6241 19.397 16.5391 19.6109 16.5391C19.8249 16.5391 20.0301 16.6241 20.1814 16.7753C20.3327 16.9266 20.4177 17.1318 20.4177 17.3458V27.0263C20.4177 27.2403 20.3327 27.4455 20.1814 27.5967C20.0301 27.748 19.8249 27.833 19.6109 27.833Z" fill="white"/>
</svg>
