<svg width="24" height="24" viewBox="0 0 24 24" fill="none" xmlns="http://www.w3.org/2000/svg">
<path fill-rule="evenodd" clip-rule="evenodd" d="M7.93107 4.18275C6.96559 4.18275 6.01359 4.45496 5.17025 4.97115C2.56016 6.57101 1.6416 10.1428 3.15765 12.9303C3.44133 13.4523 3.94936 14.0792 4.60169 14.7584C5.25039 15.4338 6.02687 16.1458 6.83273 16.8378C8.44427 18.2216 10.1591 19.5133 11.1723 20.2552L11.1726 20.2554C11.4154 20.4336 11.7006 20.5268 12.0003 20.5268C12.2993 20.5268 12.5851 20.4339 12.8332 20.2546C13.8465 19.5127 15.5609 18.2212 17.172 16.8378C17.9779 16.1458 18.7544 15.4338 19.403 14.7584C20.0554 14.0792 20.5634 13.4524 20.847 12.9304C22.359 10.1428 21.4403 6.57082 18.8301 4.97104C17.9868 4.45492 17.0349 4.18275 16.0695 4.18275C14.6229 4.18275 13.2614 4.76647 12.2377 5.8119L12.0003 6.05442L11.7628 5.8119C10.7392 4.76647 9.37762 4.18275 7.93107 4.18275ZM4.82213 4.41754C5.76671 3.83938 6.83876 3.53125 7.93107 3.53125C9.45234 3.53125 10.8862 4.10481 12.0003 5.1291C13.1143 4.10481 14.5482 3.53125 16.0695 3.53125C17.1618 3.53125 18.2338 3.83938 19.1784 4.41754C22.1006 6.20854 23.0964 10.1644 21.4291 13.238C21.1035 13.8373 20.5471 14.5144 19.8824 15.2065C19.214 15.9024 18.4205 16.6294 17.6055 17.3292C15.9754 18.7289 14.2452 20.0321 13.2259 20.7784L13.2244 20.7795C12.8654 21.0392 12.4431 21.1783 12.0003 21.1783C11.5578 21.1783 11.1345 21.0394 10.7785 20.7782C9.75924 20.0319 8.02915 18.7288 6.3992 17.3292C5.58423 16.6294 4.79075 15.9024 4.12236 15.2065C3.45765 14.5145 2.90144 13.8376 2.57578 13.2384M4.82213 4.41754C1.89997 6.20853 0.904051 10.1645 2.57578 13.2384L4.82213 4.41754ZM5.49274 5.47035C6.23469 5.01672 7.07473 4.77483 7.93107 4.77483C9.43325 4.77483 10.823 5.49178 11.7583 6.7206L11.7592 6.72185L12.0003 7.04174L12.2413 6.72185L12.2423 6.7206C13.1776 5.49164 14.5717 4.77483 16.0695 4.77483C16.9255 4.77483 17.7658 5.01658 18.504 5.47063C20.8756 6.92292 21.6702 10.1458 20.3073 12.6498C20.0019 13.211 19.445 13.866 18.781 14.5384C18.1119 15.2159 17.3143 15.9305 16.5083 16.6117C14.8959 17.9743 13.2349 19.2157 12.4672 19.7792L12.4655 19.7804C12.189 19.9807 11.8073 19.9807 11.5308 19.7804L11.5296 19.7795C10.7615 19.2179 9.10047 17.9774 7.48804 16.6148C6.68198 15.9336 5.88437 15.2187 5.21523 14.5406C4.55124 13.8678 3.99444 13.212 3.68907 12.6498M5.8409 6.02393C3.78455 7.28707 3.06181 10.1204 4.27083 12.3416C4.53053 12.8198 5.03327 13.4223 5.68838 14.0862C6.33843 14.7449 7.11973 15.4457 7.91763 16.12C9.51254 17.4678 11.159 18.6976 11.9219 19.2555C11.9656 19.2869 12.0301 19.287 12.0739 19.2558C12.8373 18.6955 14.4837 17.4648 16.0787 16.1169C16.8766 15.4426 17.6579 14.742 18.308 14.0838C18.9632 13.4204 19.4658 12.8189 19.7255 12.3416C20.9347 10.1201 20.2114 7.28281 18.1555 6.02402L18.155 6.02366C17.5186 5.63219 16.7988 5.42632 16.0695 5.42632C14.7929 5.42632 13.5896 6.03575 12.7708 7.11116C12.7706 7.11138 12.7705 7.11159 12.7703 7.1118L12.0003 8.13373L11.2302 7.1118C11.2301 7.11157 11.2299 7.11134 11.2297 7.11111C10.4108 6.03559 9.2117 5.42632 7.93107 5.42632C7.20202 5.42632 6.48198 5.63206 5.8409 6.02393ZM5.49274 5.47035L5.49217 5.47069L5.49274 5.47035ZM5.49217 5.47069C3.12114 6.9269 2.32601 10.1455 3.68907 12.6498L5.49217 5.47069Z" fill="#333333"/>
<path d="M11.9989 20.824C11.6287 20.824 11.2753 20.7083 10.9766 20.4893C8.94886 19.0059 4.10244 15.316 2.88663 13.0806C1.2964 10.1593 2.25138 6.40746 5.01114 4.71748C5.90302 4.17205 6.91269 3.88281 7.93919 3.88281C9.47473 3.88281 10.9177 4.50261 11.9989 5.60585C13.0801 4.50261 14.5231 3.88281 16.0586 3.88281C17.0851 3.88281 18.0948 4.17205 18.9867 4.71748C21.7464 6.40746 22.7014 10.1593 21.1154 13.0806C19.8996 15.316 15.0532 19.0059 13.0254 20.4893C12.7225 20.7083 12.3691 20.824 11.9989 20.824ZM7.93919 5.12241C7.14828 5.12241 6.36999 5.34554 5.68005 5.767C3.4714 7.1223 2.71414 10.1387 3.99727 12.4939C5.12473 14.5681 10.1983 18.3778 11.7254 19.4935C11.8853 19.6092 12.1083 19.6092 12.2681 19.4935C13.7953 18.3737 18.8689 14.564 19.9963 12.4939C21.2795 10.1387 20.5222 7.11816 18.3135 5.767C17.6278 5.34554 16.8495 5.12241 16.0586 5.12241C14.6745 5.12241 13.3788 5.78353 12.5037 6.93222L11.9989 7.60161L11.4941 6.93222C10.619 5.78353 9.32748 5.12241 7.93919 5.12241Z" fill="#333333"/>
</svg>
