<svg width="21" height="20" viewBox="0 0 21 20" fill="none" xmlns="http://www.w3.org/2000/svg">
<g clip-path="url(#clip0_1832_283)">
<path d="M20.2189 9.29289L18.2165 7.29286L11.2079 0.292789C11.0201 0.105316 10.7655 0 10.5 0C10.2345 0 9.97989 0.105316 9.79213 0.292789L2.78352 7.29286L0.781057 9.29289C0.598675 9.48149 0.497757 9.73409 0.500038 9.99629C0.502319 10.2585 0.607617 10.5093 0.793254 10.6947C0.97889 10.8801 1.23001 10.9853 1.49253 10.9876C1.75505 10.9899 2.00796 10.8891 2.1968 10.7069L2.49016 10.4139V18C2.49016 18.5304 2.70113 19.0391 3.07666 19.4142C3.4522 19.7893 3.96153 20 4.49262 20H8.49754C8.76308 20 9.01775 19.8946 9.20552 19.7071C9.39328 19.5196 9.49877 19.2652 9.49877 19V13.9999H11.5012V19C11.5012 19.2652 11.6067 19.5196 11.7945 19.7071C11.9823 19.8946 12.2369 20 12.5025 20H16.5074C17.0385 20 17.5478 19.7893 17.9233 19.4142C18.2989 19.0391 18.5098 18.5304 18.5098 18V10.4139L18.8032 10.7069C18.992 10.8891 19.2449 10.9899 19.5075 10.9876C19.77 10.9853 20.0211 10.8801 20.2067 10.6947C20.3924 10.5093 20.4977 10.2585 20.5 9.99629C20.5022 9.73409 20.4013 9.48149 20.2189 9.29289ZM16.5074 18H13.5037V13.9999C13.5037 13.4695 13.2927 12.9608 12.9172 12.5857C12.5416 12.2106 12.0323 11.9999 11.5012 11.9999H9.49877C8.96768 11.9999 8.45835 12.2106 8.08282 12.5857C7.70728 12.9608 7.49631 13.4695 7.49631 13.9999V18H4.49262V8.41388L10.5 2.41381L16.5074 8.41388V18Z" fill="#111928"/>
</g>
<defs>
<clipPath id="clip0_1832_283">
<rect width="20" height="20" fill="white" transform="translate(0.5)"/>
</clipPath>
</defs>
</svg>
