<svg width="15" height="16" viewBox="0 0 15 16" fill="none" xmlns="http://www.w3.org/2000/svg">
<path fill-rule="evenodd" clip-rule="evenodd" d="M7.82891 12.2703C8.20643 12.2703 8.56848 12.4203 8.83543 12.6872C9.10237 12.9542 9.25234 13.3162 9.25234 13.6937C9.25234 14.0713 9.10237 14.4333 8.83543 14.7003C8.56848 14.9672 8.20643 15.1172 7.82891 15.1172C7.45139 15.1172 7.08933 14.9672 6.82238 14.7003C6.55544 14.4333 6.40547 14.0713 6.40547 13.6937C6.40547 13.3162 6.55544 12.9542 6.82238 12.6872C7.08933 12.4203 7.45139 12.2703 7.82891 12.2703ZM3.37426 10.1352C3.84616 10.1352 4.29873 10.3226 4.63241 10.6563C4.96609 10.99 5.15356 11.4426 5.15356 11.9145C5.15356 12.3864 4.96609 12.8389 4.63241 13.1726C4.29873 13.5063 3.84616 13.6937 3.37426 13.6937C2.90236 13.6937 2.44979 13.5063 2.11611 13.1726C1.78242 12.8389 1.59496 12.3864 1.59496 11.9145C1.59496 11.4426 1.78242 10.99 2.11611 10.6563C2.44979 10.3226 2.90236 10.1352 3.37426 10.1352ZM11.6145 10.491C11.9921 10.491 12.3541 10.641 12.6211 10.9079C12.888 11.1749 13.038 11.5369 13.038 11.9145C13.038 12.292 12.888 12.654 12.6211 12.921C12.3541 13.1879 11.9921 13.3379 11.6145 13.3379C11.237 13.3379 10.875 13.1879 10.608 12.921C10.3411 12.654 10.1911 12.292 10.1911 11.9145C10.1911 11.5369 10.3411 11.1749 10.608 10.9079C10.875 10.641 11.237 10.491 11.6145 10.491ZM13.1668 7.51532C13.4499 7.51532 13.7215 7.6278 13.9217 7.82801C14.1219 8.02822 14.2344 8.29976 14.2344 8.5829C14.2344 8.86604 14.1219 9.13758 13.9217 9.33779C13.7215 9.538 13.4499 9.65048 13.1668 9.65048C12.8837 9.65048 12.6121 9.538 12.4119 9.33779C12.2117 9.13758 12.0992 8.86604 12.0992 8.5829C12.0992 8.29976 12.2117 8.02822 12.4119 7.82801C12.6121 7.6278 12.8837 7.51532 13.1668 7.51532ZM1.7793 5.15312C2.2512 5.15312 2.70377 5.34059 3.03745 5.67427C3.37113 6.00795 3.55859 6.46052 3.55859 6.93242C3.55859 7.40432 3.37113 7.85689 3.03745 8.19057C2.70377 8.52426 2.2512 8.71172 1.7793 8.71172C1.3074 8.71172 0.854827 8.52426 0.521144 8.19057C0.187461 7.85689 0 7.40432 0 6.93242C0 6.46052 0.187461 6.00795 0.521144 5.67427C0.854827 5.34059 1.3074 5.15312 1.7793 5.15312ZM12.6586 4.58873C12.8474 4.58873 13.0284 4.66372 13.1619 4.79719C13.2954 4.93066 13.3703 5.11169 13.3703 5.30045C13.3703 5.48921 13.2954 5.67024 13.1619 5.80371C13.0284 5.93719 12.8474 6.01217 12.6586 6.01217C12.4699 6.01217 12.2888 5.93719 12.1554 5.80371C12.0219 5.67024 11.9469 5.48921 11.9469 5.30045C11.9469 5.11169 12.0219 4.93066 12.1554 4.79719C12.2888 4.66372 12.4699 4.58873 12.6586 4.58873ZM5.69375 0.882812C6.26003 0.882813 6.80311 1.10777 7.20353 1.50819C7.60395 1.9086 7.82891 2.45169 7.82891 3.01797C7.82891 3.58425 7.60395 4.12733 7.20353 4.52775C6.80311 4.92817 6.26003 5.15312 5.69375 5.15312C5.12747 5.15312 4.58439 4.92817 4.18397 4.52775C3.78355 4.12733 3.55859 3.58425 3.55859 3.01797C3.55859 2.45169 3.78355 1.9086 4.18397 1.50819C4.58439 1.10777 5.12747 0.882813 5.69375 0.882812ZM11.0316 3.01797C11.126 3.01797 11.2165 3.05546 11.2833 3.1222C11.35 3.18893 11.3875 3.27945 11.3875 3.37383C11.3875 3.46821 11.35 3.55872 11.2833 3.62546C11.2165 3.6922 11.126 3.72969 11.0316 3.72969C10.9373 3.72969 10.8467 3.6922 10.78 3.62546C10.7133 3.55872 10.6758 3.46821 10.6758 3.37383C10.6758 3.27945 10.7133 3.18893 10.78 3.1222C10.8467 3.05546 10.9373 3.01797 11.0316 3.01797Z" fill="#1C64F2"/>
</svg>
