<svg width="33" height="35" viewBox="0 0 33 35" fill="none" xmlns="http://www.w3.org/2000/svg">
<path d="M29.3194 1.74545H23.4919C23.1823 1.21651 22.7365 0.776801 22.1992 0.47044C21.6618 0.164078 21.0519 0.00183961 20.4306 0H13.3194C12.6981 0.00183961 12.0882 0.164078 11.5508 0.47044C11.0135 0.776801 10.5677 1.21651 10.2581 1.74545H4.43056C3.48756 1.74545 2.58319 2.11325 1.9164 2.76792C1.2496 3.42259 0.875 4.31052 0.875 5.23636V31.4182C0.875 32.344 1.2496 33.232 1.9164 33.8866C2.58319 34.5413 3.48756 34.9091 4.43056 34.9091H29.3194C30.2624 34.9091 31.1668 34.5413 31.8336 33.8866C32.5004 33.232 32.875 32.344 32.875 31.4182V5.23636C32.875 4.31052 32.5004 3.42259 31.8336 2.76792C31.1668 2.11325 30.2624 1.74545 29.3194 1.74545ZM20.4306 3.49091V6.98182H13.3194V3.49091H20.4306ZM29.3194 31.4182H4.43056V5.23636H9.76389V6.98182C9.29239 6.98182 8.84021 7.16571 8.50681 7.49305C8.17341 7.82039 7.98611 8.26435 7.98611 8.72727C7.98611 9.1902 8.17341 9.63416 8.50681 9.96149C8.84021 10.2888 9.29239 10.4727 9.76389 10.4727H23.9861C24.4576 10.4727 24.9098 10.2888 25.2432 9.96149C25.5766 9.63416 25.7639 9.1902 25.7639 8.72727C25.7639 8.26435 25.5766 7.82039 25.2432 7.49305C24.9098 7.16571 24.4576 6.98182 23.9861 6.98182V5.23636H29.3194V31.4182Z" fill="#5145CD"/>
<path d="M23.9861 15.7091H15.0972C14.6257 15.7091 14.1735 15.893 13.8401 16.2203C13.5067 16.5477 13.3194 16.9916 13.3194 17.4545C13.3194 17.9175 13.5067 18.3614 13.8401 18.6888C14.1735 19.0161 14.6257 19.2 15.0972 19.2H23.9861C24.4576 19.2 24.9098 19.0161 25.2432 18.6888C25.5766 18.3614 25.7639 17.9175 25.7639 17.4545C25.7639 16.9916 25.5766 16.5477 25.2432 16.2203C24.9098 15.893 24.4576 15.7091 23.9861 15.7091Z" fill="#5145CD"/>
<path d="M23.9861 22.6909H15.0972C14.6257 22.6909 14.1735 22.8748 13.8401 23.2021C13.5067 23.5295 13.3194 23.9734 13.3194 24.4364C13.3194 24.8993 13.5067 25.3433 13.8401 25.6706C14.1735 25.9979 14.6257 26.1818 15.0972 26.1818H23.9861C24.4576 26.1818 24.9098 25.9979 25.2432 25.6706C25.5766 25.3433 25.7639 24.8993 25.7639 24.4364C25.7639 23.9734 25.5766 23.5295 25.2432 23.2021C24.9098 22.8748 24.4576 22.6909 23.9861 22.6909Z" fill="#5145CD"/>
<path d="M9.76389 19.2C10.7457 19.2 11.5417 18.4185 11.5417 17.4545C11.5417 16.4906 10.7457 15.7091 9.76389 15.7091C8.78205 15.7091 7.98611 16.4906 7.98611 17.4545C7.98611 18.4185 8.78205 19.2 9.76389 19.2Z" fill="#5145CD"/>
<path d="M9.76389 26.1818C10.7457 26.1818 11.5417 25.4004 11.5417 24.4364C11.5417 23.4724 10.7457 22.6909 9.76389 22.6909C8.78205 22.6909 7.98611 23.4724 7.98611 24.4364C7.98611 25.4004 8.78205 26.1818 9.76389 26.1818Z" fill="#5145CD"/>
</svg>
