<svg width="40" height="40" viewBox="0 0 40 40" fill="none" xmlns="http://www.w3.org/2000/svg">
<path d="M39.6314 16.1692C38.0175 7.7329 30.936 1.14068 22.4065 0.138645C16.3309 -0.569379 10.3493 1.45669 6.00763 5.70483C1.66592 9.95698 -0.489931 15.8852 0.09403 21.9694C0.745986 28.7576 5.12369 34.8998 11.5213 37.9999C14.2371 39.314 17.0629 39.988 19.9247 40C19.9307 40 19.9387 40 19.9467 40C21.5706 40 23.0945 39.374 24.2384 38.2319C25.3743 37.1019 25.9983 35.5959 25.9983 33.9918V32.2797C25.9983 30.9597 26.8382 29.9997 27.9981 29.9997H33.4098C35.9996 29.9997 38.3335 28.3336 39.0814 25.9515C40.0813 22.7814 40.2653 19.4873 39.6314 16.1692ZM35.2657 24.7495C35.0357 25.4855 34.2717 25.9995 33.4098 25.9995H27.9981C24.6344 25.9995 21.9986 28.7576 21.9986 32.2797V33.9918C21.9986 34.5238 21.7906 35.0238 21.4146 35.3978C21.0246 35.7879 20.5027 35.9999 19.9467 35.9999H19.9387C17.6508 35.9899 15.469 35.4658 13.2651 34.3978C8.11549 31.9037 4.59573 26.9956 4.07776 21.5874C3.60979 16.7132 5.33368 11.965 8.80744 8.56493C11.8232 5.61283 15.829 3.99878 20.0207 3.99878C20.6566 3.99878 21.2986 4.03678 21.9406 4.11278C28.7541 4.91281 34.4117 10.179 35.7016 16.9192C36.2116 19.5813 36.0656 22.2154 35.2657 24.7495Z" fill="#5521B5"/>
<path d="M20.1567 11.165C21.2612 11.165 22.1565 10.2696 22.1565 9.16495C22.1565 8.06034 21.2612 7.16488 20.1567 7.16488C19.0522 7.16488 18.1568 8.06034 18.1568 9.16495C18.1568 10.2696 19.0522 11.165 20.1567 11.165Z" fill="#5521B5"/>
<path d="M11.5853 11.585C10.8033 12.3671 10.8033 13.6331 11.5853 14.4131C12.3672 15.1952 13.6331 15.1952 14.4131 14.4131C15.195 13.6311 15.195 12.3651 14.4131 11.585C13.6331 10.803 12.3652 10.803 11.5853 11.585Z" fill="#5521B5"/>
<path d="M8.99943 21.9994C10.1039 21.9994 10.9993 21.1039 10.9993 19.9993C10.9993 18.8947 10.1039 17.9993 8.99943 17.9993C7.89494 17.9993 6.99957 18.8947 6.99957 19.9993C6.99957 21.1039 7.89494 21.9994 8.99943 21.9994Z" fill="#5521B5"/>
<path d="M25.5843 11.585C24.8024 12.3671 24.8024 13.6331 25.5843 14.4131C26.3663 15.1952 27.6322 15.1952 28.4121 14.4131C29.1941 13.6311 29.1941 12.3651 28.4121 11.585C27.6322 10.803 26.3643 10.803 25.5843 11.585Z" fill="#5521B5"/>
</svg>
