<svg width="20" height="21" viewBox="0 0 20 21" fill="none" xmlns="http://www.w3.org/2000/svg">
<path d="M19.8157 8.38928C19.0087 4.17114 15.468 0.875027 11.2033 0.37401C8.16547 0.0199981 5.17467 1.03303 3.00382 3.1571C0.832962 5.28318 -0.244965 8.24728 0.047015 11.2894C0.372993 14.6835 2.56185 17.7546 5.76063 19.3047C7.11854 19.9617 8.53144 20.2987 9.96235 20.3047C9.96535 20.3047 9.96935 20.3047 9.97335 20.3047C10.7853 20.3047 11.5472 19.9917 12.1192 19.4207C12.6872 18.8556 12.9991 18.1026 12.9991 17.3006V16.4446C12.9991 15.7845 13.4191 15.3045 13.9991 15.3045H16.7049C17.9998 15.3045 19.1667 14.4715 19.5407 13.2804C20.0407 11.6954 20.1327 10.0483 19.8157 8.38928ZM17.6328 12.6794C17.5178 13.0474 17.1359 13.3044 16.7049 13.3044H13.9991C12.3172 13.3044 10.9993 14.6835 10.9993 16.4446V17.3006C10.9993 17.5666 10.8953 17.8166 10.7073 18.0036C10.5123 18.1986 10.2513 18.3046 9.97335 18.3046H9.96935C8.82542 18.2996 7.7345 18.0376 6.63257 17.5036C4.05775 16.2565 2.29786 13.8025 2.03888 11.0984C1.8049 8.66129 2.66684 6.28721 4.40372 4.58715C5.91162 3.1111 7.91448 2.30408 10.0103 2.30408C10.3283 2.30408 10.6493 2.32308 10.9703 2.36108C14.377 2.76109 17.2059 5.39418 17.8508 8.76429C18.1058 10.0953 18.0328 11.4124 17.6328 12.6794Z" fill="#6B7280"/>
<path d="M10.0783 5.8872C10.6306 5.8872 11.0783 5.43947 11.0783 4.88716C11.0783 4.33486 10.6306 3.88713 10.0783 3.88713C9.52609 3.88713 9.07841 4.33486 9.07841 4.88716C9.07841 5.43947 9.52609 5.8872 10.0783 5.8872Z" fill="#6B7280"/>
<path d="M5.79263 6.0972C5.40165 6.48822 5.40165 7.12124 5.79263 7.51125C6.1836 7.90227 6.81656 7.90227 7.20653 7.51125C7.59751 7.12024 7.59751 6.48722 7.20653 6.0972C6.81656 5.70619 6.1826 5.70619 5.79263 6.0972Z" fill="#6B7280"/>
<path d="M4.49971 11.3044C5.05196 11.3044 5.49965 10.8567 5.49965 10.3043C5.49965 9.75204 5.05196 9.30431 4.49971 9.30431C3.94747 9.30431 3.49978 9.75204 3.49978 10.3043C3.49978 10.8567 3.94747 11.3044 4.49971 11.3044Z" fill="#6B7280"/>
<path d="M12.7922 6.0972C12.4012 6.48822 12.4012 7.12124 12.7922 7.51125C13.1831 7.90227 13.8161 7.90227 14.2061 7.51125C14.597 7.12024 14.597 6.48722 14.2061 6.0972C13.8161 5.70619 13.1821 5.70619 12.7922 6.0972Z" fill="#6B7280"/>
</svg>
