<svg width="17" height="16" viewBox="0 0 17 16" fill="none" xmlns="http://www.w3.org/2000/svg">
<path d="M16.1785 1.76077L14.7392 0.321531C14.3105 -0.107177 13.6062 -0.107177 13.1469 0.321531L1.51053 11.9579L1.44928 12.0191L0.5 16L4.48086 15.0507L16.1785 3.35311C16.6072 2.89378 16.6072 2.18947 16.1785 1.76077ZM2.15359 12.2029L12.1976 2.15885L14.3411 4.30239L4.29713 14.3464L2.15359 12.2029ZM1.90861 12.7847L3.71531 14.5914L1.32679 15.1732L1.90861 12.7847ZM15.7498 2.89378L14.8005 3.84306L12.6569 1.69952L13.6062 0.750239C13.79 0.566507 14.1268 0.566507 14.3105 0.750239L15.7498 2.18947C15.8416 2.28134 15.9029 2.40383 15.9029 2.55694C15.9029 2.67943 15.8416 2.80191 15.7498 2.89378Z" fill="white"/>
</svg>
