<svg width="41" height="43" viewBox="0 0 41 43" fill="none" xmlns="http://www.w3.org/2000/svg">
<path d="M0.954623 15.7488C4.03162 20.1585 4.00712 22.1477 3.98752 24.0782C3.84053 38.1109 13.5664 42.4471 19.3431 42.795C19.7841 42.8195 20.2103 42.8342 20.6366 42.8342C23.3079 42.8659 25.9556 42.3307 28.4049 41.264C30.8542 40.1973 33.0494 38.6233 34.8457 36.6459L38.055 33.1083L38.1089 33.0446L39.7012 31.2856C40.265 30.7213 40.6664 30.0155 40.863 29.2425C41.0596 28.4694 41.0444 27.6577 40.8187 26.8925C40.5931 26.1274 40.1655 25.4373 39.5809 24.8946C38.9962 24.3519 38.2762 23.9768 37.4964 23.8087C37.6494 23.2526 37.68 22.6699 37.586 22.1007C37.4921 21.5316 37.2758 20.9897 36.9521 20.5123C36.6283 20.0348 36.2049 19.6333 35.711 19.3354C35.2171 19.0375 34.6644 18.8502 34.0911 18.7866C34.2504 18.3466 34.3332 17.8826 34.3361 17.4146C34.3388 16.3928 33.9865 15.4017 33.3395 14.6108C32.6925 13.8199 31.7909 13.2783 30.7887 13.0784L36.1049 7.74269C36.522 7.32696 36.8521 6.83231 37.0759 6.28762C37.2997 5.74293 37.4128 5.15911 37.4086 4.57024C37.4044 3.98136 37.2829 3.39923 37.0512 2.85783C36.8195 2.31642 36.4824 1.82657 36.0593 1.41689C35.6363 1.00721 35.1359 0.685889 34.5874 0.471692C34.0388 0.257495 33.4531 0.154711 32.8644 0.169337C32.2757 0.183963 31.6958 0.315706 31.1585 0.556879C30.6213 0.798051 30.1375 1.14382 29.7353 1.574C23.9096 7.79169 16.6679 14.8668 13.8114 16.028C12.1455 16.714 11.7437 16.1799 10.4551 14.0682C9.56012 12.4137 8.37134 10.936 6.94692 9.70746C5.25164 8.33066 3.25747 8.29146 1.60628 9.59967C-0.260496 11.0745 -0.529978 13.6125 0.954623 15.7488ZM36.5508 25.6755C36.8759 25.6743 37.1979 25.7377 37.4982 25.8622C37.7986 25.9867 38.0711 26.1698 38.2999 26.4007C38.5309 26.6347 38.7133 26.9121 38.8366 27.2169C38.96 27.5216 39.0218 27.8478 39.0186 28.1766C39.0154 28.5053 38.9473 28.8302 38.818 29.1326C38.6888 29.4349 38.5011 29.7087 38.2656 29.9382L36.7124 31.6482C36.2965 31.8447 35.8303 31.9091 35.3766 31.8329C34.9229 31.7567 34.5034 31.5435 34.1744 31.2219L34.0862 31.1288C33.6855 30.7359 33.4447 30.2083 33.4103 29.6482C33.3759 29.088 33.5504 28.535 33.9 28.0959L36.3499 25.6461L36.5508 25.6755ZM35.0809 21.2952C35.4437 21.655 35.6573 22.1385 35.6791 22.649C35.7009 23.1595 35.5293 23.6594 35.1984 24.0488C35.1575 24.0864 35.1198 24.1273 35.0858 24.1713L32.2733 26.9837C31.8762 27.129 31.4462 27.1601 31.0323 27.0735C30.6183 26.9869 30.2369 26.786 29.9313 26.4937L29.8137 26.3762C29.428 25.9756 29.2014 25.4484 29.1761 24.8929C29.1509 24.3375 29.3288 23.7918 29.6765 23.358C30.0685 23.0542 31.7099 21.7558 32.582 21.0061C32.9701 20.7711 33.4254 20.672 33.8761 20.7243C34.3267 20.7766 34.7472 20.9775 35.0711 21.2952H35.0809ZM31.6511 15.6557C31.882 15.8845 32.065 16.1571 32.1895 16.4574C32.314 16.7577 32.3775 17.0798 32.3762 17.4049C32.3122 18.2008 31.9437 18.9415 31.3473 19.4725C30.7495 19.9919 29.4609 21.0257 28.5104 21.7705C28.1051 21.8862 27.6762 21.8908 27.2685 21.7839C26.8607 21.677 26.4893 21.4625 26.1928 21.1629L26.1291 21.0992C25.683 20.6527 25.4325 20.0473 25.4325 19.4162C25.4325 18.785 25.683 18.1796 26.1291 17.7331L28.432 15.4303C28.9039 15.0723 29.4895 14.8973 30.0804 14.9379C30.6714 14.9784 31.2276 15.2317 31.6462 15.6508L31.6511 15.6557ZM2.8263 11.1137C3.76704 10.3689 4.71267 10.3983 5.71221 11.2068C6.95933 12.2942 7.99859 13.5991 8.7794 15.0579C9.23398 15.9085 9.80453 16.6917 10.4747 17.3853C10.493 17.4123 10.5126 17.4385 10.5335 17.4636C10.6168 17.5518 12.4934 19.6048 10.5825 22.5887C10.4537 22.8074 10.4149 23.0676 10.4741 23.3144C10.5333 23.5612 10.686 23.7754 10.8999 23.9119C11.1139 24.0484 11.3725 24.0966 11.6213 24.0463C11.87 23.9959 12.0896 23.8511 12.2337 23.6421C12.7744 22.8669 13.1358 21.9811 13.2918 21.0489C13.4477 20.1167 13.3942 19.1615 13.1352 18.2525C13.6206 18.1861 14.095 18.0559 14.5463 17.8654C18.4024 16.2828 27.4423 6.89995 31.1562 2.93612C31.3818 2.6928 31.6545 2.49786 31.9577 2.3631C32.2609 2.22834 32.5883 2.15658 32.9201 2.15217C33.2523 2.14697 33.5822 2.20847 33.8902 2.33302C34.1982 2.45758 34.4782 2.64266 34.7134 2.87732C34.9437 3.10715 35.1265 3.38018 35.2512 3.68075C35.3759 3.98132 35.4401 4.30354 35.4401 4.62895C35.4401 4.95437 35.3759 5.27658 35.2512 5.57716C35.1265 5.87773 34.9437 6.15075 34.7134 6.38059L24.7376 16.3367C24.3323 16.7401 24.0107 17.2196 23.7912 17.7476C23.5718 18.2757 23.4588 18.8419 23.4588 19.4137C23.4588 19.9856 23.5718 20.5518 23.7912 21.0798C24.0107 21.6079 24.3323 22.0873 24.7376 22.4907L24.7915 22.5446C25.4664 23.2213 26.3473 23.654 27.2953 23.7744C27.1244 24.4815 27.1374 25.2206 27.3329 25.9213C27.5285 26.622 27.9001 27.261 28.4124 27.7775L28.4516 27.8118L28.4908 27.851C29.2857 28.6387 30.3605 29.0792 31.4796 29.0759C31.4126 29.7021 31.4871 30.3353 31.6974 30.9289C31.9077 31.5225 32.2485 32.0613 32.6947 32.5056L32.7682 32.5889C33.3351 33.1545 34.0501 33.5485 34.831 33.7257L33.3611 35.3475L33.3219 35.3916C31.5675 37.2802 29.4108 38.7501 27.0114 39.6924C24.612 40.6347 22.0314 41.0252 19.4607 40.8351C16.936 40.6162 14.505 39.7744 12.3856 38.3853C12.5375 38.3853 12.6942 38.3853 12.851 38.3853H13.2675C15.7173 38.2285 17.9565 36.7439 19.9556 33.9755C20.0998 33.7641 20.1557 33.5046 20.1111 33.2526C20.0665 33.0005 19.9251 32.7759 19.7171 32.6268C19.5091 32.4776 19.2509 32.4158 18.9979 32.4545C18.7449 32.4932 18.5171 32.6294 18.3632 32.8339C16.7316 35.1074 14.9824 36.3225 13.1597 36.445C10.6168 36.6116 8.66181 34.5782 8.63241 34.5488C8.58908 34.5035 8.54149 34.4625 8.49032 34.4263C6.95672 32.0059 5.90329 28.6839 5.95229 24.0929C5.98169 21.501 5.7465 19.1589 2.56662 14.612C1.82677 13.5733 1.62588 12.074 2.8263 11.1137Z" fill="white"/>
</svg>
