<svg width="9" height="8" viewBox="0 0 9 8" fill="none" xmlns="http://www.w3.org/2000/svg">
<path fill-rule="evenodd" clip-rule="evenodd" d="M8.53823 1.11588C8.62973 1.21297 8.7012 1.32712 8.74857 1.45184C8.79594 1.57655 8.81827 1.70937 8.8143 1.84272C8.81032 1.97607 8.78011 2.10732 8.7254 2.22899C8.67069 2.35066 8.59254 2.46036 8.49542 2.55182L3.85448 6.92526C3.66055 7.10798 3.40257 7.20716 3.13618 7.20144C2.86979 7.19571 2.61632 7.08552 2.43042 6.89463L0.472921 4.88369C0.285031 4.69067 0.181518 4.43091 0.185151 4.16156C0.188785 3.89221 0.299268 3.63533 0.492296 3.44744C0.685324 3.25955 0.945084 3.15604 1.21443 3.15967C1.48378 3.16331 1.74066 3.27379 1.92855 3.46682L3.18886 4.76151L7.10292 1.07338C7.29894 0.888651 7.56031 0.78935 7.82954 0.79732C8.09876 0.80529 8.3538 0.91988 8.53855 1.11588" fill="#014737"/>
</svg>
