<svg width="24" height="24" viewBox="0 0 24 24" fill="none" xmlns="http://www.w3.org/2000/svg">
<path fill-rule="evenodd" clip-rule="evenodd" d="M22.0778 3.96534C21.8664 3.59382 21.4686 3.37891 21.0507 3.37891L2.95876 3.39205C2.45491 3.3921 2.01809 3.70327 1.84346 4.16693L1.8433 4.16737C1.71759 4.5026 1.74577 4.86832 1.91838 5.17038L1.92079 5.1746L1.92333 5.17875C1.98829 5.28504 2.07078 5.38517 2.17069 5.47333L9.05713 11.4119L10.7356 20.3278L10.7357 20.3284C10.8275 20.8223 11.2098 21.1902 11.7055 21.2688C12.1962 21.3473 12.6791 21.1162 12.9312 20.69L12.9317 20.6893L22.0715 5.15248L21.8672 4.79757C21.8673 4.79743 21.8673 4.79729 21.8674 4.79715L22.0717 5.15208C22.2894 4.78287 22.2906 4.33173 22.0778 3.96534ZM21.2561 3.73557L21.0507 3.37891L21.256 3.73554C21.256 3.73555 21.2561 3.73556 21.2561 3.73557ZM10.092 9.68182L5.07895 5.35445H17.6752L10.092 9.68182ZM12.2917 17.8778L11.0697 11.3856L18.6678 7.05237L12.2917 17.8778Z" fill="#333333"/>
</svg>
