<svg width="8" height="8" viewBox="0 0 8 8" fill="none" xmlns="http://www.w3.org/2000/svg">
<path d="M1.68828 2.77894H0.422069C0.31013 2.77894 0.202775 2.82071 0.123621 2.89506C0.0444679 2.96941 0 3.07025 0 3.1754V6.74354C0 6.95383 0.0889357 7.15552 0.247242 7.30422C0.405549 7.45292 0.620259 7.53646 0.844138 7.53646H1.26621C1.49009 7.53646 1.7048 7.45292 1.8631 7.30422C2.02141 7.15552 2.11035 6.95383 2.11035 6.74354V3.1754C2.11035 3.07025 2.06588 2.96941 1.98672 2.89506C1.90757 2.82071 1.80022 2.77894 1.68828 2.77894Z" fill="white"/>
<path d="M7.15576 2.77894H5.4869L6.14448 0.994868C6.16606 0.831614 6.12617 0.666412 6.03172 0.527878C5.93727 0.389343 5.79421 0.286201 5.62732 0.236316C5.46044 0.186431 5.28023 0.192945 5.11792 0.254729C4.9556 0.316514 4.82141 0.429678 4.73857 0.574621C4.25073 1.35665 3.65038 2.07174 2.95448 2.69965V6.50011H3.0026C3.89274 6.73125 5.07116 7.14 6.16221 7.14C6.75311 7.14 6.83414 6.93146 6.9557 6.61786L7.94925 3.84264C7.99558 3.72286 8.0105 3.59436 7.99273 3.46801C7.97496 3.34167 7.92503 3.22121 7.84718 3.11684C7.76932 3.01247 7.66583 2.92727 7.54547 2.86845C7.42511 2.80963 7.29144 2.77892 7.15576 2.77894Z" fill="white"/>
</svg>
