<svg width="10" height="10" viewBox="0 0 10 10" fill="none" xmlns="http://www.w3.org/2000/svg">
<path fill-rule="evenodd" clip-rule="evenodd" d="M0 5C0 2.28381 2.20177 0.0820312 4.91797 0.0820312C7.63416 0.0820312 9.83594 2.28381 9.83594 5C9.83594 7.71619 7.63416 9.91797 4.91797 9.91797C2.20177 9.91797 0 7.71619 0 5ZM4.91797 1.06563C3.87451 1.06563 2.87378 1.48014 2.13595 2.21798C1.39811 2.95582 0.983594 3.95654 0.983594 5C0.983594 6.04346 1.39811 7.04419 2.13595 7.78202C2.87378 8.51986 3.87451 8.93437 4.91797 8.93437C5.96143 8.93437 6.96215 8.51986 7.69999 7.78202C8.43783 7.04419 8.85234 6.04346 8.85234 5C8.85234 3.95654 8.43783 2.95582 7.69999 2.21798C6.96215 1.48014 5.96143 1.06563 4.91797 1.06563Z" fill="#111928"/>
<path fill-rule="evenodd" clip-rule="evenodd" d="M5.40986 2.54258C5.40986 2.41215 5.35805 2.28706 5.26582 2.19483C5.17359 2.1026 5.0485 2.05078 4.91807 2.05078C4.78763 2.05078 4.66254 2.1026 4.57031 2.19483C4.47808 2.28706 4.42627 2.41215 4.42627 2.54258V4.50977H2.45908C2.32865 4.50977 2.20356 4.56158 2.11133 4.65381C2.0191 4.74604 1.96729 4.87113 1.96729 5.00156C1.96729 5.132 2.0191 5.25709 2.11133 5.34932C2.20356 5.44155 2.32865 5.49336 2.45908 5.49336H4.42627V7.46055C4.42627 7.59098 4.47808 7.71607 4.57031 7.8083C4.66254 7.90053 4.78763 7.95234 4.91807 7.95234C5.0485 7.95234 5.17359 7.90053 5.26582 7.8083C5.35805 7.71607 5.40986 7.59098 5.40986 7.46055V5.49336H7.37705C7.50748 5.49336 7.63257 5.44155 7.7248 5.34932C7.81703 5.25709 7.86885 5.132 7.86885 5.00156C7.86885 4.87113 7.81703 4.74604 7.7248 4.65381C7.63257 4.56158 7.50748 4.50977 7.37705 4.50977H5.40986V2.54258Z" fill="#111928"/>
</svg>
