<svg width="24" height="24" viewBox="0 0 24 24" fill="none" xmlns="http://www.w3.org/2000/svg">
<path d="M19.4232 2.42969H4.53602C3.95117 2.42969 3.47266 2.86068 3.47266 3.39336V22.0567C3.47266 22.5893 3.81825 22.7249 4.24891 22.3521L11.5489 16.047C11.7191 15.9017 12.0009 15.9017 12.171 16.0422L19.705 22.3666C20.1356 22.7298 20.4865 22.5893 20.4865 22.0567V3.39336C20.4865 2.86068 20.0133 2.42969 19.4232 2.42969ZM18.8915 19.7128L13.2503 14.9768C12.8569 14.6475 12.3624 14.4829 11.8626 14.4829C11.3522 14.4829 10.8471 14.6524 10.4537 14.9913L5.06771 19.6451V3.88246H18.8915V19.7128Z" fill="#333333"/>
<path fill-rule="evenodd" clip-rule="evenodd" d="M3.125 3.38277C3.125 2.62867 3.78962 2.08203 4.52178 2.08203H19.4366C20.1752 2.08203 20.8333 2.6297 20.8333 3.38277V22.0661C20.8333 22.3845 20.7261 22.7381 20.3931 22.8704C20.0793 22.9951 19.753 22.842 19.5072 22.635C19.5071 22.6349 19.5073 22.635 19.5072 22.635L11.9618 16.3059C11.9615 16.3057 11.9613 16.3055 11.9611 16.3053C11.9126 16.2661 11.8089 16.2669 11.7616 16.3067C11.7614 16.3069 11.7613 16.307 11.7611 16.3071L4.44928 22.6175C4.20693 22.8271 3.88204 22.9895 3.56613 22.8682C3.22892 22.7387 3.125 22.3805 3.125 22.0661V3.38277ZM4.52178 2.7541C4.08206 2.7541 3.78788 3.07036 3.78788 3.38277V22.0661C3.78788 22.1541 3.80082 22.2068 3.81138 22.2336C3.81555 22.2326 3.82038 22.2311 3.82591 22.2293C3.86751 22.2152 3.93337 22.1803 4.019 22.1062L11.3329 15.7941L11.3343 15.7929C11.6278 15.5425 12.0876 15.5432 12.3801 15.7845L12.3822 15.7863L19.9307 22.118C20.0154 22.1893 20.0806 22.2224 20.122 22.2355C20.1308 22.2383 20.1379 22.24 20.1434 22.241C20.1548 22.2162 20.1705 22.1619 20.1705 22.0661V3.38277C20.1705 3.06934 19.8805 2.7541 19.4366 2.7541H4.52178ZM20.1593 22.2424C20.1593 22.2425 20.159 22.2425 20.1584 22.2425L20.1593 22.2424ZM3.79008 22.2369C3.79009 22.2369 3.79039 22.2369 3.79098 22.237L3.79008 22.2369ZM4.72301 3.53637H19.2353V20.434L13.0413 15.2379C13.0413 15.2378 13.0414 15.238 13.0413 15.2379C12.7111 14.9618 12.2917 14.8202 11.862 14.8202C11.4214 14.8202 10.9935 14.9665 10.6649 15.2494L4.72301 20.3795V3.53637ZM5.38589 4.20843V18.9244L10.2359 14.7371C10.6956 14.3413 11.2798 14.1482 11.862 14.1482C12.4335 14.1482 13.0051 14.3363 13.4632 14.7194L13.4635 14.7198L18.5724 19.0056V4.20843H5.38589Z" fill="#333333"/>
</svg>
