<svg width="18" height="25" viewBox="0 0 18 25" fill="none" xmlns="http://www.w3.org/2000/svg">
<path d="M8.91078 24.3894C8.39616 24.3894 7.93102 24.2655 7.51537 24.0178C7.09971 23.7701 6.77313 23.4382 6.53561 23.022C5.88244 23.022 5.32328 22.7892 4.85814 22.3235C4.39301 21.8578 4.16044 21.298 4.16044 20.644V16.4231C2.99264 15.6502 2.05742 14.6297 1.35476 13.3614C0.652109 12.0931 0.300781 10.7159 0.300781 9.22962C0.300781 6.83181 1.13704 4.79565 2.80956 3.12114C4.48207 1.44663 6.51582 0.609375 8.91078 0.609375C11.3057 0.609375 13.3395 1.44663 15.012 3.12114C16.6845 4.79565 17.5208 6.83181 17.5208 9.22962C17.5208 10.7555 17.1695 12.1427 16.4668 13.3911C15.7641 14.6396 14.8289 15.6502 13.6611 16.4231V20.644C13.6611 21.298 13.4286 21.8578 12.9634 22.3235C12.4983 22.7892 11.9391 23.022 11.286 23.022C11.0484 23.4382 10.7219 23.7701 10.3062 24.0178C9.89054 24.2655 9.4254 24.3894 8.91078 24.3894ZM6.53561 20.644H11.286V19.5739H6.53561V20.644ZM6.53561 18.3849H11.286V17.2554H6.53561V18.3849ZM6.29809 14.8774H8.02009V11.6671L5.4074 9.05127L6.65437 7.80282L8.91078 10.0619L11.1672 7.80282L12.4142 9.05127L9.80147 11.6671V14.8774H11.5235C12.5923 14.3621 13.4632 13.6042 14.1362 12.6034C14.8091 11.6027 15.1456 10.4781 15.1456 9.22962C15.1456 7.48576 14.5419 6.00942 13.3345 4.8006C12.1272 3.59178 10.6526 2.98737 8.91078 2.98737C7.16899 2.98737 5.6944 3.59178 4.48702 4.8006C3.27964 6.00942 2.67595 7.48576 2.67595 9.22962C2.67595 10.4781 3.01244 11.6027 3.6854 12.6034C4.35837 13.6042 5.22926 14.3621 6.29809 14.8774Z" fill="#5145CD"/>
</svg>
