<svg width="21" height="21" viewBox="0 0 21 21" fill="none" xmlns="http://www.w3.org/2000/svg">
<g clip-path="url(#clip0_1120_22117)">
<path d="M17.4013 1.30078H14.0626C13.8852 0.99774 13.6298 0.745823 13.3219 0.570304C13.0141 0.394784 12.6647 0.301835 12.3087 0.300781H8.23461C7.87863 0.301835 7.52919 0.394784 7.22134 0.570304C6.9135 0.745823 6.65809 0.99774 6.48072 1.30078H3.14202C2.60176 1.30078 2.08363 1.51149 1.70161 1.88657C1.3196 2.26164 1.10498 2.77035 1.10498 3.30078V18.3008C1.10498 18.8312 1.3196 19.3399 1.70161 19.715C2.08363 20.0901 2.60176 20.3008 3.14202 20.3008H17.4013C17.9415 20.3008 18.4597 20.0901 18.8417 19.715C19.2237 19.3399 19.4383 18.8312 19.4383 18.3008V3.30078C19.4383 2.77035 19.2237 2.26164 18.8417 1.88657C18.4597 1.51149 17.9415 1.30078 17.4013 1.30078ZM12.3087 2.30078V4.30078H8.23461V2.30078H12.3087ZM17.4013 18.3008H3.14202V3.30078H6.19757V4.30078C5.92745 4.30078 5.66838 4.40614 5.47737 4.59367C5.28636 4.78121 5.17905 5.03556 5.17905 5.30078C5.17905 5.566 5.28636 5.82035 5.47737 6.00789C5.66838 6.19542 5.92745 6.30078 6.19757 6.30078H14.3457C14.6159 6.30078 14.8749 6.19542 15.0659 6.00789C15.2569 5.82035 15.3642 5.566 15.3642 5.30078C15.3642 5.03556 15.2569 4.78121 15.0659 4.59367C14.8749 4.40614 14.6159 4.30078 14.3457 4.30078V3.30078H17.4013V18.3008Z" fill="#5145CD"/>
<path d="M14.3457 9.30078H9.25313C8.983 9.30078 8.72394 9.40614 8.53293 9.59367C8.34192 9.78121 8.23461 10.0356 8.23461 10.3008C8.23461 10.566 8.34192 10.8204 8.53293 11.0079C8.72394 11.1954 8.983 11.3008 9.25313 11.3008H14.3457C14.6158 11.3008 14.8749 11.1954 15.0659 11.0079C15.2569 10.8204 15.3642 10.566 15.3642 10.3008C15.3642 10.0356 15.2569 9.78121 15.0659 9.59367C14.8749 9.40614 14.6158 9.30078 14.3457 9.30078Z" fill="#5145CD"/>
<path d="M14.3457 13.3008H9.25313C8.983 13.3008 8.72394 13.4061 8.53293 13.5937C8.34192 13.7812 8.23461 14.0356 8.23461 14.3008C8.23461 14.566 8.34192 14.8204 8.53293 15.0079C8.72394 15.1954 8.983 15.3008 9.25313 15.3008H14.3457C14.6158 15.3008 14.8749 15.1954 15.0659 15.0079C15.2569 14.8204 15.3642 14.566 15.3642 14.3008C15.3642 14.0356 15.2569 13.7812 15.0659 13.5937C14.8749 13.4061 14.6158 13.3008 14.3457 13.3008Z" fill="#5145CD"/>
<path d="M6.19757 11.3008C6.76009 11.3008 7.21609 10.8531 7.21609 10.3008C7.21609 9.7485 6.76009 9.30078 6.19757 9.30078C5.63506 9.30078 5.17905 9.7485 5.17905 10.3008C5.17905 10.8531 5.63506 11.3008 6.19757 11.3008Z" fill="#5145CD"/>
<path d="M6.19757 15.3008C6.76009 15.3008 7.21609 14.8531 7.21609 14.3008C7.21609 13.7485 6.76009 13.3008 6.19757 13.3008C5.63506 13.3008 5.17905 13.7485 5.17905 14.3008C5.17905 14.8531 5.63506 15.3008 6.19757 15.3008Z" fill="#5145CD"/>
</g>
<defs>
<clipPath id="clip0_1120_22117">
<rect width="20" height="20" fill="white" transform="translate(0.271484 0.300781)"/>
</clipPath>
</defs>
</svg>
