<svg width="20" height="21" viewBox="0 0 20 21" fill="none" xmlns="http://www.w3.org/2000/svg">
<g clip-path="url(#clip0_1100_46313)">
<path d="M17.1298 1.30078H13.7911C13.6137 0.99774 13.3583 0.745823 13.0505 0.570304C12.7426 0.394784 12.3932 0.301835 12.0372 0.300781H7.96313C7.60714 0.301835 7.2577 0.394784 6.94986 0.570304C6.64202 0.745823 6.3866 0.99774 6.20924 1.30078H2.87053C2.33028 1.30078 1.81215 1.51149 1.43013 1.88657C1.04811 2.26164 0.833496 2.77035 0.833496 3.30078V18.3008C0.833496 18.8312 1.04811 19.3399 1.43013 19.715C1.81215 20.0901 2.33028 20.3008 2.87053 20.3008H17.1298C17.67 20.3008 18.1882 20.0901 18.5702 19.715C18.9522 19.3399 19.1668 18.8312 19.1668 18.3008V3.30078C19.1668 2.77035 18.9522 2.26164 18.5702 1.88657C18.1882 1.51149 17.67 1.30078 17.1298 1.30078ZM12.0372 2.30078V4.30078H7.96313V2.30078H12.0372ZM17.1298 18.3008H2.87053V3.30078H5.92609V4.30078C5.65596 4.30078 5.3969 4.40614 5.20589 4.59367C5.01488 4.78121 4.90757 5.03556 4.90757 5.30078C4.90757 5.566 5.01488 5.82035 5.20589 6.00789C5.3969 6.19542 5.65596 6.30078 5.92609 6.30078H14.0742C14.3444 6.30078 14.6034 6.19542 14.7944 6.00789C14.9854 5.82035 15.0928 5.566 15.0928 5.30078C15.0928 5.03556 14.9854 4.78121 14.7944 4.59367C14.6034 4.40614 14.3444 4.30078 14.0742 4.30078V3.30078H17.1298V18.3008Z" fill="#6B7280"/>
<path d="M14.0742 9.30078H8.98164C8.71152 9.30078 8.45245 9.40614 8.26144 9.59367C8.07043 9.78121 7.96313 10.0356 7.96313 10.3008C7.96313 10.566 8.07043 10.8204 8.26144 11.0079C8.45245 11.1954 8.71152 11.3008 8.98164 11.3008H14.0742C14.3444 11.3008 14.6034 11.1954 14.7944 11.0079C14.9854 10.8204 15.0928 10.566 15.0928 10.3008C15.0928 10.0356 14.9854 9.78121 14.7944 9.59367C14.6034 9.40614 14.3444 9.30078 14.0742 9.30078Z" fill="#6B7280"/>
<path d="M14.0742 13.3008H8.98164C8.71152 13.3008 8.45245 13.4061 8.26144 13.5937C8.07043 13.7812 7.96313 14.0356 7.96313 14.3008C7.96313 14.566 8.07043 14.8204 8.26144 15.0079C8.45245 15.1954 8.71152 15.3008 8.98164 15.3008H14.0742C14.3444 15.3008 14.6034 15.1954 14.7944 15.0079C14.9854 14.8204 15.0928 14.566 15.0928 14.3008C15.0928 14.0356 14.9854 13.7812 14.7944 13.5937C14.6034 13.4061 14.3444 13.3008 14.0742 13.3008Z" fill="#6B7280"/>
<path d="M5.92609 11.3008C6.4886 11.3008 6.94461 10.8531 6.94461 10.3008C6.94461 9.7485 6.4886 9.30078 5.92609 9.30078C5.36358 9.30078 4.90757 9.7485 4.90757 10.3008C4.90757 10.8531 5.36358 11.3008 5.92609 11.3008Z" fill="#6B7280"/>
<path d="M5.92609 15.3008C6.4886 15.3008 6.94461 14.8531 6.94461 14.3008C6.94461 13.7485 6.4886 13.3008 5.92609 13.3008C5.36358 13.3008 4.90757 13.7485 4.90757 14.3008C4.90757 14.8531 5.36358 15.3008 5.92609 15.3008Z" fill="#6B7280"/>
</g>
<defs>
<clipPath id="clip0_1100_46313">
<rect width="20" height="20" fill="white" transform="translate(0 0.300781)"/>
</clipPath>
</defs>
</svg>
