<svg width="15" height="16" viewBox="0 0 15 16" fill="none" xmlns="http://www.w3.org/2000/svg">
<path d="M10.6349 13.7657C10.6349 13.8011 10.6215 13.8351 10.5977 13.8602C10.5739 13.8853 10.5417 13.8993 10.508 13.8993H1.64613C1.61248 13.8993 1.58021 13.8853 1.55642 13.8602C1.53263 13.8351 1.51927 13.8011 1.51927 13.7657V4.42909C1.51927 4.39364 1.53263 4.35965 1.55642 4.33458C1.58021 4.30952 1.61248 4.29543 1.64613 4.29543H7.09726L8.61652 2.69478H1.64613C1.20967 2.69521 0.791205 2.87806 0.482583 3.20322C0.173962 3.52837 0.000402264 3.96925 0 4.42909V13.7657C0.000402264 14.2255 0.173962 14.6664 0.482583 14.9916C0.791205 15.3167 1.20967 15.4996 1.64613 15.5H10.508C10.9445 15.4996 11.3629 15.3167 11.6716 14.9916C11.9802 14.6664 12.1537 14.2255 12.1541 13.7657V8.02255L10.6349 9.62321V13.7657Z" fill="#6B7280"/>
<path d="M14.3297 1.20297C13.9024 0.75286 13.3228 0.5 12.7185 0.5C12.1143 0.5 11.5347 0.75286 11.1074 1.20297L5.19817 7.42791C5.09226 7.53969 5.0201 7.68198 4.99079 7.83688L4.45373 10.6668C4.4312 10.7831 4.4335 10.9032 4.46047 11.0185C4.48744 11.1337 4.5384 11.2412 4.60966 11.3331C4.68092 11.4251 4.77069 11.4991 4.87248 11.55C4.97426 11.6009 5.08552 11.6272 5.19817 11.6272C5.24915 11.627 5.3 11.622 5.3501 11.612L8.0354 11.0462C8.18251 11.0151 8.31758 10.9388 8.42358 10.8269L14.332 4.60196C14.544 4.37879 14.7121 4.11376 14.8267 3.82205C14.9413 3.53035 15.0002 3.21769 15 2.90197C14.9998 2.58625 14.9405 2.27368 14.8255 1.98214C14.7104 1.69061 14.542 1.42583 14.3297 1.20297ZM13.2556 2.33464C13.3262 2.40896 13.3823 2.49723 13.4205 2.59439C13.4587 2.69155 13.4784 2.79569 13.4784 2.90087C13.4784 3.00604 13.4587 3.11019 13.4205 3.20734C13.3823 3.3045 13.3262 3.39277 13.2556 3.4671L12.8484 3.89527L11.7743 2.76361L12.1815 2.33464C12.3239 2.1846 12.5171 2.10031 12.7185 2.10031C12.92 2.10031 13.1132 2.1846 13.2556 2.33464ZM7.50974 9.52076L6.1667 9.80408L6.43562 8.3883L10.7002 3.89527L11.7743 5.02693L7.50974 9.52076Z" fill="#6B7280"/>
</svg>
