<svg width="250" height="48" viewBox="0 0 250 48" fill="none" xmlns="http://www.w3.org/2000/svg">
<path d="M0 8C0 3.58172 3.58172 0 8 0H242C246.418 0 250 3.58172 250 8V40C250 44.4183 246.418 48 242 48H8C3.58172 48 0 44.4183 0 40V8Z" fill="#5145CD"/>
<path d="M33.5534 15H24.4466C23.2676 15.0011 22.1373 15.47 21.3036 16.3036C20.47 17.1373 20.0011 18.2676 20 19.4466V28.5534C20.0011 29.7324 20.47 30.8627 21.3036 31.6964C22.1373 32.5301 23.2676 32.9989 24.4466 33H33.5534C34.7323 32.9984 35.8624 32.5295 36.6959 31.6959C37.5295 30.8624 37.9984 29.7323 38 28.5534V19.4466C37.9984 18.2677 37.5295 17.1376 36.6959 16.3041C35.8624 15.4705 34.7323 15.0016 33.5534 15ZM33.4606 20.6813C33.2345 20.681 33.0135 20.6136 32.8257 20.4878C32.6378 20.3619 32.4915 20.1832 32.4052 19.9742C32.319 19.7652 32.2966 19.5353 32.341 19.3135C32.3854 19.0918 32.4945 18.8882 32.6546 18.7286C32.8147 18.5689 33.0185 18.4602 33.2404 18.4164C33.4622 18.3725 33.692 18.3955 33.9008 18.4823C34.1096 18.569 34.288 18.7158 34.4134 18.904C34.5388 19.0921 34.6056 19.3133 34.6053 19.5394C34.6051 19.6895 34.5754 19.8381 34.5177 19.9768C34.4601 20.1154 34.3758 20.2414 34.2695 20.3474C34.1632 20.4534 34.037 20.5375 33.8982 20.5948C33.7595 20.652 33.6108 20.6814 33.4606 20.6813ZM29 19.7137C29.8477 19.7137 30.6764 19.9651 31.3813 20.4361C32.0862 20.9071 32.6356 21.5765 32.96 22.3597C33.2844 23.1429 33.3693 24.0048 33.2039 24.8362C33.0385 25.6677 32.6303 26.4314 32.0308 27.0308C31.4314 27.6303 30.6677 28.0385 29.8362 28.2039C29.0048 28.3693 28.1429 28.2844 27.3597 27.96C26.5765 27.6356 25.9071 27.0862 25.4361 26.3813C24.9651 25.6764 24.7137 24.8477 24.7137 24C24.7154 22.8637 25.1675 21.7744 25.971 20.971C26.7744 20.1675 27.8637 19.7154 29 19.7137Z" fill="white"/>
<path d="M29 26.58C29.5101 26.58 30.0087 26.4287 30.4328 26.1454C30.8569 25.862 31.1875 25.4592 31.3827 24.9879C31.5779 24.5166 31.629 23.9981 31.5295 23.4978C31.43 22.9975 31.1843 22.538 30.8236 22.1773C30.4629 21.8166 30.0034 21.5709 29.5031 21.4714C29.0028 21.3719 28.4843 21.423 28.013 21.6182C27.5417 21.8134 27.1389 22.144 26.8555 22.5681C26.5722 22.9922 26.4209 23.4908 26.4209 24.0009C26.4216 24.6847 26.6936 25.3403 27.1771 25.8238C27.6606 26.3073 28.3162 26.5793 29 26.58Z" fill="white"/>
<path d="M56.9432 22.1477H55.1705C55.1023 21.7689 54.9754 21.4356 54.7898 21.1477C54.6042 20.8598 54.3769 20.6155 54.108 20.4148C53.839 20.214 53.5379 20.0625 53.2045 19.9602C52.875 19.858 52.5246 19.8068 52.1534 19.8068C51.483 19.8068 50.8826 19.9754 50.3523 20.3125C49.8258 20.6496 49.4091 21.1439 49.1023 21.7955C48.7992 22.447 48.6477 23.2424 48.6477 24.1818C48.6477 25.1288 48.7992 25.928 49.1023 26.5795C49.4091 27.2311 49.8277 27.7235 50.358 28.0568C50.8883 28.3902 51.4848 28.5568 52.1477 28.5568C52.5152 28.5568 52.8636 28.5076 53.1932 28.4091C53.5265 28.3068 53.8277 28.1572 54.0966 27.9602C54.3655 27.7633 54.5928 27.5227 54.7784 27.2386C54.9678 26.9508 55.0985 26.6212 55.1705 26.25L56.9432 26.2557C56.8485 26.8277 56.6648 27.3542 56.392 27.8352C56.1231 28.3125 55.7765 28.7254 55.3523 29.0739C54.9318 29.4186 54.4508 29.6856 53.9091 29.875C53.3674 30.0644 52.7765 30.1591 52.1364 30.1591C51.1288 30.1591 50.2311 29.9205 49.4432 29.4432C48.6553 28.9621 48.0341 28.2746 47.5795 27.3807C47.1288 26.4867 46.9034 25.4205 46.9034 24.1818C46.9034 22.9394 47.1307 21.8731 47.5852 20.983C48.0398 20.089 48.661 19.4034 49.4489 18.9261C50.2367 18.4451 51.1326 18.2045 52.1364 18.2045C52.7538 18.2045 53.3295 18.2936 53.8636 18.4716C54.4015 18.6458 54.8845 18.9034 55.3125 19.2443C55.7405 19.5814 56.0947 19.9943 56.375 20.483C56.6553 20.9678 56.8447 21.5227 56.9432 22.1477ZM62.5838 30.1761C61.7656 30.1761 61.0516 29.9886 60.4418 29.6136C59.8319 29.2386 59.3584 28.714 59.0213 28.0398C58.6842 27.3655 58.5156 26.5777 58.5156 25.6761C58.5156 24.7708 58.6842 23.9792 59.0213 23.3011C59.3584 22.6231 59.8319 22.0966 60.4418 21.7216C61.0516 21.3466 61.7656 21.1591 62.5838 21.1591C63.402 21.1591 64.116 21.3466 64.7259 21.7216C65.3357 22.0966 65.8092 22.6231 66.1463 23.3011C66.4834 23.9792 66.652 24.7708 66.652 25.6761C66.652 26.5777 66.4834 27.3655 66.1463 28.0398C65.8092 28.714 65.3357 29.2386 64.7259 29.6136C64.116 29.9886 63.402 30.1761 62.5838 30.1761ZM62.5895 28.75C63.1198 28.75 63.5592 28.6098 63.9077 28.3295C64.2562 28.0492 64.5137 27.6761 64.6804 27.2102C64.8509 26.7443 64.9361 26.2311 64.9361 25.6705C64.9361 25.1136 64.8509 24.6023 64.6804 24.1364C64.5137 23.6667 64.2562 23.2898 63.9077 23.0057C63.5592 22.7216 63.1198 22.5795 62.5895 22.5795C62.0554 22.5795 61.6122 22.7216 61.2599 23.0057C60.9115 23.2898 60.652 23.6667 60.4815 24.1364C60.3149 24.6023 60.2315 25.1136 60.2315 25.6705C60.2315 26.2311 60.3149 26.7443 60.4815 27.2102C60.652 27.6761 60.9115 28.0492 61.2599 28.3295C61.6122 28.6098 62.0554 28.75 62.5895 28.75ZM70.2472 24.8182V30H68.5483V21.2727H70.179V22.6932H70.2869C70.4877 22.2311 70.8021 21.8598 71.2301 21.5795C71.6619 21.2992 72.2055 21.1591 72.8608 21.1591C73.4555 21.1591 73.9763 21.2841 74.4233 21.5341C74.8703 21.7803 75.2169 22.1477 75.4631 22.6364C75.7093 23.125 75.8324 23.7292 75.8324 24.4489V30H74.1335V24.6534C74.1335 24.0208 73.9688 23.5265 73.6392 23.1705C73.3097 22.8106 72.857 22.6307 72.2812 22.6307C71.8873 22.6307 71.5369 22.7159 71.2301 22.8864C70.9271 23.0568 70.6866 23.3068 70.5085 23.6364C70.3343 23.9621 70.2472 24.3561 70.2472 24.8182ZM79.8097 24.8182V30H78.1108V21.2727H79.7415V22.6932H79.8494C80.0502 22.2311 80.3646 21.8598 80.7926 21.5795C81.2244 21.2992 81.768 21.1591 82.4233 21.1591C83.018 21.1591 83.5388 21.2841 83.9858 21.5341C84.4328 21.7803 84.7794 22.1477 85.0256 22.6364C85.2718 23.125 85.3949 23.7292 85.3949 24.4489V30H83.696V24.6534C83.696 24.0208 83.5313 23.5265 83.2017 23.1705C82.8722 22.8106 82.4195 22.6307 81.8438 22.6307C81.4498 22.6307 81.0994 22.7159 80.7926 22.8864C80.4896 23.0568 80.2491 23.3068 80.071 23.6364C79.8968 23.9621 79.8097 24.3561 79.8097 24.8182ZM91.4347 30.1761C90.5748 30.1761 89.8343 29.9924 89.2131 29.625C88.5956 29.2538 88.1184 28.733 87.7812 28.0625C87.4479 27.3883 87.2812 26.5985 87.2812 25.6932C87.2812 24.7992 87.4479 24.0114 87.7812 23.3295C88.1184 22.6477 88.5881 22.1155 89.1903 21.733C89.7964 21.3504 90.5047 21.1591 91.3153 21.1591C91.8078 21.1591 92.285 21.2405 92.7472 21.4034C93.2093 21.5663 93.6241 21.822 93.9915 22.1705C94.3589 22.5189 94.6487 22.9716 94.8608 23.5284C95.0729 24.0814 95.179 24.7538 95.179 25.5455V26.1477H88.2415V24.875H93.5142C93.5142 24.428 93.4233 24.0322 93.2415 23.6875C93.0597 23.339 92.804 23.0644 92.4744 22.8636C92.1487 22.6629 91.7661 22.5625 91.3267 22.5625C90.8494 22.5625 90.4328 22.6799 90.0767 22.9148C89.7244 23.1458 89.4517 23.4489 89.2585 23.8239C89.0691 24.1951 88.9744 24.5985 88.9744 25.0341V26.0284C88.9744 26.6117 89.0767 27.108 89.2812 27.517C89.4896 27.9261 89.7794 28.2386 90.1506 28.4545C90.5218 28.6667 90.9555 28.7727 91.4517 28.7727C91.7737 28.7727 92.0672 28.7273 92.3324 28.6364C92.5975 28.5417 92.8267 28.4015 93.0199 28.2159C93.2131 28.0303 93.3608 27.8011 93.4631 27.5284L95.071 27.8182C94.9422 28.2917 94.7112 28.7064 94.3778 29.0625C94.0483 29.4148 93.6335 29.6894 93.1335 29.8864C92.6373 30.0795 92.071 30.1761 91.4347 30.1761ZM100.74 30.1761C99.8954 30.1761 99.1681 29.9848 98.5582 29.6023C97.9522 29.2159 97.4863 28.6837 97.1605 28.0057C96.8348 27.3277 96.6719 26.5511 96.6719 25.6761C96.6719 24.7898 96.8385 24.0076 97.1719 23.3295C97.5052 22.6477 97.9749 22.1155 98.581 21.733C99.187 21.3504 99.901 21.1591 100.723 21.1591C101.386 21.1591 101.977 21.2822 102.496 21.5284C103.015 21.7708 103.433 22.1117 103.751 22.5511C104.073 22.9905 104.265 23.5038 104.325 24.0909H102.672C102.581 23.6818 102.373 23.3295 102.047 23.0341C101.725 22.7386 101.293 22.5909 100.751 22.5909C100.278 22.5909 99.8632 22.7159 99.5071 22.9659C99.1548 23.2121 98.8802 23.5644 98.6832 24.0227C98.4863 24.4773 98.3878 25.0152 98.3878 25.6364C98.3878 26.2727 98.4844 26.822 98.6776 27.2841C98.8707 27.7462 99.1435 28.1042 99.4957 28.358C99.8518 28.6117 100.27 28.7386 100.751 28.7386C101.073 28.7386 101.365 28.6799 101.626 28.5625C101.892 28.4413 102.113 28.2689 102.291 28.0455C102.473 27.822 102.6 27.553 102.672 27.2386H104.325C104.265 27.803 104.081 28.3068 103.774 28.75C103.467 29.1932 103.056 29.5417 102.541 29.7955C102.03 30.0492 101.429 30.1761 100.74 30.1761ZM110.216 21.2727V22.6364H105.449V21.2727H110.216ZM106.727 19.1818H108.426V27.4375C108.426 27.767 108.475 28.0152 108.574 28.1818C108.672 28.3447 108.799 28.4564 108.955 28.517C109.114 28.5739 109.286 28.6023 109.472 28.6023C109.608 28.6023 109.727 28.5928 109.83 28.5739C109.932 28.5549 110.011 28.5398 110.068 28.5284L110.375 29.9318C110.277 29.9697 110.136 30.0076 109.955 30.0455C109.773 30.0871 109.545 30.1098 109.273 30.1136C108.826 30.1212 108.409 30.0417 108.023 29.875C107.636 29.7083 107.324 29.4508 107.085 29.1023C106.847 28.7538 106.727 28.3163 106.727 27.7898V19.1818ZM118.222 30L115.653 21.2727H117.409L119.119 27.6818H119.205L120.92 21.2727H122.676L124.381 27.6534H124.466L126.165 21.2727H127.92L125.358 30H123.625L121.852 23.6989H121.722L119.949 30H118.222ZM129.533 30V21.2727H131.232V30H129.533ZM130.391 19.9261C130.095 19.9261 129.841 19.8277 129.629 19.6307C129.421 19.4299 129.317 19.1913 129.317 18.9148C129.317 18.6345 129.421 18.3958 129.629 18.1989C129.841 17.9981 130.095 17.8977 130.391 17.8977C130.686 17.8977 130.938 17.9981 131.146 18.1989C131.358 18.3958 131.464 18.6345 131.464 18.9148C131.464 19.1913 131.358 19.4299 131.146 19.6307C130.938 19.8277 130.686 19.9261 130.391 19.9261ZM137.591 21.2727V22.6364H132.824V21.2727H137.591ZM134.102 19.1818H135.801V27.4375C135.801 27.767 135.85 28.0152 135.949 28.1818C136.047 28.3447 136.174 28.4564 136.33 28.517C136.489 28.5739 136.661 28.6023 136.847 28.6023C136.983 28.6023 137.102 28.5928 137.205 28.5739C137.307 28.5549 137.386 28.5398 137.443 28.5284L137.75 29.9318C137.652 29.9697 137.511 30.0076 137.33 30.0455C137.148 30.0871 136.92 30.1098 136.648 30.1136C136.201 30.1212 135.784 30.0417 135.398 29.875C135.011 29.7083 134.699 29.4508 134.46 29.1023C134.222 28.7538 134.102 28.3163 134.102 27.7898V19.1818ZM141.357 24.8182V30H139.658V18.3636H141.334V22.6932H141.442C141.646 22.2235 141.959 21.8504 142.379 21.5739C142.8 21.2973 143.349 21.1591 144.027 21.1591C144.625 21.1591 145.148 21.2822 145.595 21.5284C146.046 21.7746 146.394 22.142 146.641 22.6307C146.891 23.1155 147.016 23.7216 147.016 24.4489V30H145.317V24.6534C145.317 24.0133 145.152 23.517 144.822 23.1648C144.493 22.8087 144.035 22.6307 143.447 22.6307C143.046 22.6307 142.686 22.7159 142.368 22.8864C142.054 23.0568 141.805 23.3068 141.624 23.6364C141.446 23.9621 141.357 24.3561 141.357 24.8182ZM155.409 18.3636V30H153.653V18.3636H155.409ZM159.528 24.8182V30H157.83V21.2727H159.46V22.6932H159.568C159.769 22.2311 160.083 21.8598 160.511 21.5795C160.943 21.2992 161.487 21.1591 162.142 21.1591C162.737 21.1591 163.258 21.2841 163.705 21.5341C164.152 21.7803 164.498 22.1477 164.744 22.6364C164.991 23.125 165.114 23.7292 165.114 24.4489V30H163.415V24.6534C163.415 24.0208 163.25 23.5265 162.92 23.1705C162.591 22.8106 162.138 22.6307 161.562 22.6307C161.169 22.6307 160.818 22.7159 160.511 22.8864C160.208 23.0568 159.968 23.3068 159.79 23.6364C159.616 23.9621 159.528 24.3561 159.528 24.8182ZM173.932 23.4034L172.392 23.6761C172.328 23.4792 172.225 23.2917 172.085 23.1136C171.949 22.9356 171.763 22.7898 171.528 22.6761C171.294 22.5625 171 22.5057 170.648 22.5057C170.167 22.5057 169.765 22.6136 169.443 22.8295C169.121 23.0417 168.96 23.3163 168.96 23.6534C168.96 23.9451 169.068 24.1799 169.284 24.358C169.5 24.536 169.848 24.6818 170.33 24.7955L171.716 25.1136C172.519 25.2992 173.117 25.5852 173.511 25.9716C173.905 26.358 174.102 26.8598 174.102 27.4773C174.102 28 173.951 28.4659 173.648 28.875C173.348 29.2803 172.93 29.5985 172.392 29.8295C171.858 30.0606 171.239 30.1761 170.534 30.1761C169.557 30.1761 168.759 29.9678 168.142 29.5511C167.525 29.1307 167.146 28.5341 167.006 27.7614L168.648 27.5114C168.75 27.9394 168.96 28.2633 169.278 28.483C169.597 28.6989 170.011 28.8068 170.523 28.8068C171.08 28.8068 171.525 28.6913 171.858 28.4602C172.191 28.2254 172.358 27.9394 172.358 27.6023C172.358 27.3295 172.256 27.1004 172.051 26.9148C171.85 26.7292 171.542 26.589 171.125 26.4943L169.648 26.1705C168.833 25.9848 168.231 25.6894 167.841 25.2841C167.455 24.8788 167.261 24.3655 167.261 23.7443C167.261 23.2292 167.405 22.7784 167.693 22.392C167.981 22.0057 168.379 21.7045 168.886 21.4886C169.394 21.2689 169.975 21.1591 170.631 21.1591C171.574 21.1591 172.316 21.3636 172.858 21.7727C173.4 22.178 173.758 22.7216 173.932 23.4034ZM180.044 21.2727V22.6364H175.277V21.2727H180.044ZM176.555 19.1818H178.254V27.4375C178.254 27.767 178.304 28.0152 178.402 28.1818C178.5 28.3447 178.627 28.4564 178.783 28.517C178.942 28.5739 179.114 28.6023 179.3 28.6023C179.436 28.6023 179.555 28.5928 179.658 28.5739C179.76 28.5549 179.839 28.5398 179.896 28.5284L180.203 29.9318C180.105 29.9697 179.964 30.0076 179.783 30.0455C179.601 30.0871 179.374 30.1098 179.101 30.1136C178.654 30.1212 178.237 30.0417 177.851 29.875C177.464 29.7083 177.152 29.4508 176.913 29.1023C176.675 28.7538 176.555 28.3163 176.555 27.7898V19.1818ZM184.463 30.1932C183.91 30.1932 183.41 30.0909 182.963 29.8864C182.516 29.678 182.162 29.3769 181.901 28.983C181.643 28.589 181.514 28.1061 181.514 27.5341C181.514 27.0417 181.609 26.6364 181.798 26.3182C181.988 26 182.243 25.7481 182.565 25.5625C182.887 25.3769 183.247 25.2367 183.645 25.142C184.043 25.0473 184.448 24.9754 184.861 24.9261C185.384 24.8655 185.808 24.8163 186.134 24.7784C186.459 24.7367 186.696 24.6705 186.844 24.5795C186.991 24.4886 187.065 24.3409 187.065 24.1364V24.0966C187.065 23.6004 186.925 23.2159 186.645 22.9432C186.368 22.6705 185.955 22.5341 185.406 22.5341C184.834 22.5341 184.384 22.661 184.054 22.9148C183.728 23.1648 183.503 23.4432 183.378 23.75L181.781 23.3864C181.971 22.8561 182.247 22.428 182.611 22.1023C182.978 21.7727 183.401 21.5341 183.878 21.3864C184.355 21.2348 184.857 21.1591 185.384 21.1591C185.732 21.1591 186.101 21.2008 186.491 21.2841C186.885 21.3636 187.253 21.5114 187.594 21.7273C187.938 21.9432 188.221 22.2519 188.44 22.6534C188.66 23.0511 188.77 23.5682 188.77 24.2045V30H187.111V28.8068H187.043C186.933 29.0265 186.768 29.2424 186.548 29.4545C186.329 29.6667 186.046 29.8428 185.702 29.983C185.357 30.1231 184.944 30.1932 184.463 30.1932ZM184.832 28.8295C185.302 28.8295 185.704 28.7367 186.037 28.5511C186.374 28.3655 186.63 28.1231 186.804 27.8239C186.982 27.5208 187.071 27.197 187.071 26.8523V25.7273C187.01 25.7879 186.893 25.8447 186.719 25.8977C186.548 25.947 186.353 25.9905 186.134 26.0284C185.914 26.0625 185.7 26.0947 185.491 26.125C185.283 26.1515 185.109 26.1742 184.969 26.1932C184.639 26.2348 184.338 26.3049 184.065 26.4034C183.796 26.5019 183.58 26.6439 183.418 26.8295C183.259 27.0114 183.179 27.2538 183.179 27.5568C183.179 27.9773 183.334 28.2955 183.645 28.5114C183.955 28.7235 184.351 28.8295 184.832 28.8295ZM194.692 33.4545C193.999 33.4545 193.402 33.3636 192.902 33.1818C192.406 33 192 32.7595 191.686 32.4602C191.372 32.161 191.137 31.8333 190.982 31.4773L192.442 30.875C192.544 31.0417 192.68 31.2178 192.851 31.4034C193.025 31.5928 193.26 31.7538 193.555 31.8864C193.855 32.0189 194.239 32.0852 194.709 32.0852C195.353 32.0852 195.885 31.928 196.305 31.6136C196.726 31.303 196.936 30.8068 196.936 30.125V28.4091H196.828C196.726 28.5947 196.578 28.8011 196.385 29.0284C196.196 29.2557 195.934 29.4527 195.601 29.6193C195.268 29.786 194.834 29.8693 194.3 29.8693C193.61 29.8693 192.989 29.7083 192.436 29.3864C191.887 29.0606 191.451 28.5814 191.129 27.9489C190.811 27.3125 190.652 26.5303 190.652 25.6023C190.652 24.6742 190.809 23.8788 191.124 23.2159C191.442 22.553 191.877 22.0455 192.43 21.6932C192.983 21.3371 193.61 21.1591 194.311 21.1591C194.853 21.1591 195.29 21.25 195.624 21.4318C195.957 21.6098 196.216 21.8182 196.402 22.0568C196.591 22.2955 196.737 22.5057 196.839 22.6875H196.964V21.2727H198.629V30.1932C198.629 30.9432 198.455 31.5587 198.107 32.0398C197.758 32.5208 197.286 32.8769 196.692 33.108C196.101 33.339 195.434 33.4545 194.692 33.4545ZM194.675 28.4602C195.163 28.4602 195.576 28.3466 195.913 28.1193C196.254 27.8883 196.512 27.5587 196.686 27.1307C196.864 26.6989 196.953 26.1818 196.953 25.5795C196.953 24.9924 196.866 24.4754 196.692 24.0284C196.518 23.5814 196.262 23.233 195.925 22.983C195.588 22.7292 195.171 22.6023 194.675 22.6023C194.163 22.6023 193.737 22.7348 193.396 23C193.055 23.2614 192.798 23.6174 192.624 24.0682C192.453 24.5189 192.368 25.0227 192.368 25.5795C192.368 26.1515 192.455 26.6534 192.629 27.0852C192.804 27.517 193.061 27.8542 193.402 28.0966C193.747 28.339 194.171 28.4602 194.675 28.4602ZM200.908 30V21.2727H202.55V22.6591H202.641C202.8 22.1894 203.08 21.8201 203.482 21.5511C203.887 21.2784 204.345 21.142 204.857 21.142C204.963 21.142 205.088 21.1458 205.232 21.1534C205.379 21.161 205.495 21.1705 205.578 21.1818V22.8068C205.51 22.7879 205.389 22.767 205.214 22.7443C205.04 22.7178 204.866 22.7045 204.692 22.7045C204.29 22.7045 203.932 22.7898 203.618 22.9602C203.307 23.1269 203.061 23.3598 202.879 23.6591C202.697 23.9545 202.607 24.2917 202.607 24.6705V30H200.908ZM209.51 30.1932C208.957 30.1932 208.457 30.0909 208.01 29.8864C207.563 29.678 207.209 29.3769 206.947 28.983C206.69 28.589 206.561 28.1061 206.561 27.5341C206.561 27.0417 206.656 26.6364 206.845 26.3182C207.035 26 207.29 25.7481 207.612 25.5625C207.934 25.3769 208.294 25.2367 208.692 25.142C209.089 25.0473 209.495 24.9754 209.908 24.9261C210.43 24.8655 210.855 24.8163 211.18 24.7784C211.506 24.7367 211.743 24.6705 211.891 24.5795C212.038 24.4886 212.112 24.3409 212.112 24.1364V24.0966C212.112 23.6004 211.972 23.2159 211.692 22.9432C211.415 22.6705 211.002 22.5341 210.453 22.5341C209.881 22.5341 209.43 22.661 209.101 22.9148C208.775 23.1648 208.55 23.4432 208.425 23.75L206.828 23.3864C207.018 22.8561 207.294 22.428 207.658 22.1023C208.025 21.7727 208.447 21.5341 208.925 21.3864C209.402 21.2348 209.904 21.1591 210.43 21.1591C210.779 21.1591 211.148 21.2008 211.538 21.2841C211.932 21.3636 212.3 21.5114 212.641 21.7273C212.985 21.9432 213.268 22.2519 213.487 22.6534C213.707 23.0511 213.817 23.5682 213.817 24.2045V30H212.158V28.8068H212.089C211.98 29.0265 211.815 29.2424 211.595 29.4545C211.375 29.6667 211.093 29.8428 210.749 29.983C210.404 30.1231 209.991 30.1932 209.51 30.1932ZM209.879 28.8295C210.349 28.8295 210.75 28.7367 211.084 28.5511C211.421 28.3655 211.677 28.1231 211.851 27.8239C212.029 27.5208 212.118 27.197 212.118 26.8523V25.7273C212.057 25.7879 211.94 25.8447 211.766 25.8977C211.595 25.947 211.4 25.9905 211.18 26.0284C210.961 26.0625 210.747 26.0947 210.538 26.125C210.33 26.1515 210.156 26.1742 210.016 26.1932C209.686 26.2348 209.385 26.3049 209.112 26.4034C208.843 26.5019 208.627 26.6439 208.464 26.8295C208.305 27.0114 208.226 27.2538 208.226 27.5568C208.226 27.9773 208.381 28.2955 208.692 28.5114C209.002 28.7235 209.398 28.8295 209.879 28.8295ZM216.08 30V21.2727H217.71V22.6932H217.818C218 22.2121 218.297 21.8371 218.71 21.5682C219.123 21.2955 219.617 21.1591 220.193 21.1591C220.777 21.1591 221.265 21.2955 221.659 21.5682C222.057 21.8409 222.35 22.2159 222.54 22.6932H222.631C222.839 22.2273 223.17 21.8561 223.625 21.5795C224.08 21.2992 224.621 21.1591 225.25 21.1591C226.042 21.1591 226.688 21.4072 227.188 21.9034C227.691 22.3996 227.943 23.1477 227.943 24.1477V30H226.244V24.3068C226.244 23.7159 226.083 23.2879 225.761 23.0227C225.439 22.7576 225.055 22.625 224.608 22.625C224.055 22.625 223.625 22.7955 223.318 23.1364C223.011 23.4735 222.858 23.9072 222.858 24.4375V30H221.165V24.1989C221.165 23.7254 221.017 23.3447 220.722 23.0568C220.426 22.7689 220.042 22.625 219.568 22.625C219.246 22.625 218.949 22.7102 218.676 22.8807C218.407 23.0473 218.189 23.2803 218.023 23.5795C217.86 23.8788 217.778 24.2254 217.778 24.6193V30H216.08Z" fill="white"/>
</svg>
