<?xml version="1.0" encoding="UTF-8" standalone="no"?>
<svg
   xml:space="preserve"
   viewBox="0 0 48 48"
   version="1.1"
   id="svg12"
   sodipodi:docname="logo.simple.min.svg"
   inkscape:version="1.2.2 (b0a8486541, 2022-12-01)"
   xmlns:inkscape="http://www.inkscape.org/namespaces/inkscape"
   xmlns:sodipodi="http://sodipodi.sourceforge.net/DTD/sodipodi-0.dtd"
   xmlns:xlink="http://www.w3.org/1999/xlink"
   xmlns="http://www.w3.org/2000/svg"
   xmlns:svg="http://www.w3.org/2000/svg"><sodipodi:namedview
     id="namedview14"
     pagecolor="#ffffff"
     bordercolor="#000000"
     borderopacity="0.25"
     inkscape:showpageshadow="2"
     inkscape:pageopacity="0.0"
     inkscape:pagecheckerboard="0"
     inkscape:deskcolor="#d1d1d1"
     showgrid="false"
     inkscape:zoom="128"
     inkscape:cx="24.105469"
     inkscape:cy="35.992187"
     inkscape:window-width="2485"
     inkscape:window-height="1371"
     inkscape:window-x="75"
     inkscape:window-y="32"
     inkscape:window-maximized="1"
     inkscape:current-layer="svg12"
     showguides="true" /><defs
     id="defs8"><linearGradient
       id="a"><stop
         offset=".16"
         stop-color="#9cdbf5"
         id="stop2" /><stop
         offset=".79"
         stop-color="#d530ff"
         id="stop4" /></linearGradient><linearGradient
       xlink:href="#a"
       id="b"
       x1=".96"
       x2="11.57"
       y1="5.08"
       y2="10.24"
       gradientUnits="userSpaceOnUse" /></defs><path
     fill="url(#b)"
     d="M 4.83,3.05 C 3.13,3.07 1.04,4.37 1.04,8.57 1.38,8.3 1.74,8.31 2.1,8.57 2.36,2.93 5.3151384,4.0850808 5.3151384,4.0850808 2.7505661,8.4874573 5.1545835,9.9310109 6.015663,10.152926 c 0.1697022,0.04373 0.2078133,0.03414 0.2773785,0.03414 0.069565,0 0.1914757,0.01168 0.4579223,-0.08097 C 7.720467,9.7689052 9.710324,8.2838913 7.31,4.15 c 0,0 2.96,-1.22 3.22,4.42 0.36,-0.26 0.72,-0.27 1.06,0 C 11.59,2.97 7.87,2.52 6.31,3.4 5.8547588,3.1585721 5.3451596,3.0380588 4.83,3.05 Z m 1.48,1.6 c 0.43,0.1 2.24,4.08 0,4.53 C 4.08,8.73 5.89,4.75 6.31,4.66 Z M 2.05,9.23 C 2.05,9.48 1.85,9.68 1.59,9.68 1.3359255,9.68558 1.1254634,9.4840772 1.12,9.23 c 0,-0.25 0.21,-0.46 0.47,-0.46 0.25,0 0.46,0.2 0.46,0.46 z m 8.53,0 c 0,0.25 0.2,0.45 0.46,0.45 0.26,0 0.47,-0.2 0.47,-0.45 0,-0.25 -0.21,-0.46 -0.47,-0.46 -0.25,0 -0.46,0.2 -0.46,0.46 z"
     class="UnoptimicedTransforms"
     id="path10"
     sodipodi:nodetypes="ccccszscccccccccsccsssssss"
     transform="matrix(3.87596,0,0,3.87596,-0.47,-1.77)" /></svg>
