<svg width="40" height="41" viewBox="0 0 40 41" fill="none" xmlns="http://www.w3.org/2000/svg">
<path d="M11.8064 18.832C12.5548 19.3742 13.658 19.2288 14.3741 18.4947L18.0645 14.7121V25.1275C18.0645 26.2186 18.9354 27.1113 20 27.1113C21.0645 27.1113 21.9354 26.2186 21.9354 25.1275V14.7121L25.6774 18.5476C26.3548 19.242 27.3935 19.3742 28.1419 18.865C28.6451 18.5212 28.9612 17.9988 29.0193 17.397C29.0774 16.8018 28.8774 16.2199 28.4645 15.7967L24.7677 12.0075C24.0258 11.247 23.2193 10.6915 22.3741 10.3675C19.929 9.42182 17.1677 10.0236 15.3354 11.8951L11.529 15.7901C11.1225 16.2067 10.9225 16.782 10.9677 17.3639C11.0193 17.9591 11.3096 18.4749 11.8 18.8254L11.8064 18.832Z" fill="#5521B5"/>
<path d="M7.09677 35.0484H11.6774L15.7032 39.1748C16.8516 40.3519 18.3742 41 20 41C21.6258 41 23.1484 40.3519 24.2968 39.1748L28.3226 35.0484H32.9032C36.8194 35.0484 40 31.7882 40 27.7742V7.27419C40 3.26016 36.8194 0 32.9032 0H7.09677C3.18064 0 0 3.26016 0 7.27419V27.7742C0 31.7882 3.18064 35.0484 7.09677 35.0484ZM3.87097 7.27419C3.87097 5.44903 5.31613 3.96774 7.09677 3.96774H32.9032C34.6839 3.96774 36.129 5.44903 36.129 7.27419V27.7742C36.129 29.5994 34.6839 31.0806 32.9032 31.0806H28.0516C27.1935 31.0806 26.3806 31.4245 25.7742 32.0461L21.5548 36.371C21.1355 36.7942 20.5871 37.0323 20 37.0323C19.4129 37.0323 18.8581 36.7942 18.4452 36.371L14.2258 32.0461C13.6194 31.4245 12.8065 31.0806 11.9484 31.0806H7.09677C5.31613 31.0806 3.87097 29.5994 3.87097 27.7742V7.27419Z" fill="#5521B5"/>
</svg>
