<svg width="39" height="38" viewBox="0 0 39 38" fill="none" xmlns="http://www.w3.org/2000/svg">
<path fill-rule="evenodd" clip-rule="evenodd" d="M19.4998 0.0195313C21.9924 0.0195196 24.4607 0.510475 26.7636 1.46437C29.0665 2.41826 31.159 3.8164 32.9216 5.57897C34.6842 7.34155 36.0823 9.43402 37.0362 11.7369C37.9901 14.0399 38.4811 16.5081 38.4811 19.0008C38.4811 29.4838 29.9829 37.9821 19.4998 37.9821C9.01679 37.9821 0.518555 29.4838 0.518555 19.0008C0.518555 8.51777 9.01679 0.0195313 19.4998 0.0195313ZM21.398 20.899H17.6017C12.9025 20.899 8.86812 23.745 7.12804 27.8077C9.88127 31.6684 14.3966 34.1858 19.4998 34.1858C24.603 34.1858 29.1183 31.6684 31.8716 27.8074C30.1315 23.745 26.0972 20.899 21.398 20.899ZM19.4998 5.71391C16.3549 5.71391 13.8054 8.26339 13.8054 11.4083C13.8054 14.5532 16.3549 17.1027 19.4998 17.1027C22.6447 17.1027 25.1942 14.5532 25.1942 11.4083C25.1942 8.26339 22.6448 5.71391 19.4998 5.71391Z" fill="black"/>
</svg>
