<svg width="21" height="20" viewBox="0 0 21 20" fill="none" xmlns="http://www.w3.org/2000/svg">
<path d="M11.5 20H9.5C8.96957 20 8.46086 19.7893 8.08579 19.4142C7.71071 19.0391 7.5 18.5304 7.5 18V17.911L7.027 17.711L6.964 17.774C6.58894 18.1489 6.08033 18.3596 5.55 18.3596C5.01967 18.3596 4.51106 18.1489 4.136 17.774L2.722 16.364C2.34706 15.9889 2.13643 15.4803 2.13643 14.95C2.13643 14.4197 2.34706 13.9111 2.722 13.536L2.785 13.473L2.589 13H2.5C1.96957 13 1.46086 12.7893 1.08579 12.4142C0.710714 12.0391 0.5 11.5304 0.5 11V9C0.5 8.46957 0.710714 7.96086 1.08579 7.58579C1.46086 7.21071 1.96957 7 2.5 7H2.589L2.789 6.527L2.726 6.464C2.35106 6.08894 2.14043 5.58033 2.14043 5.05C2.14043 4.51967 2.35106 4.01106 2.726 3.636L4.136 2.222C4.51106 1.84706 5.01967 1.63643 5.55 1.63643C6.08033 1.63643 6.58894 1.84706 6.964 2.222L7.028 2.286L7.5 2.089V2C7.5 1.46957 7.71071 0.960859 8.08579 0.585786C8.46086 0.210714 8.96957 0 9.5 0H11.5C12.0304 0 12.5391 0.210714 12.9142 0.585786C13.2893 0.960859 13.5 1.46957 13.5 2V2.089L13.972 2.289L14.036 2.226C14.411 1.85136 14.9194 1.64093 15.4495 1.64093C15.9796 1.64093 16.488 1.85136 16.863 2.226L18.278 3.641C18.6529 4.01606 18.8636 4.52467 18.8636 5.055C18.8636 5.58533 18.6529 6.09394 18.278 6.469L18.214 6.533L18.414 7.005H18.5C19.0304 7.005 19.5391 7.21571 19.9142 7.59079C20.2893 7.96586 20.5 8.47457 20.5 9.005V11.005C20.5 11.5354 20.2893 12.0441 19.9142 12.4192C19.5391 12.7943 19.0304 13.005 18.5 13.005H18.411L18.211 13.477L18.274 13.541C18.6486 13.916 18.8591 14.4244 18.8591 14.9545C18.8591 15.4846 18.6486 15.993 18.274 16.368L16.859 17.783C16.4839 18.1579 15.9753 18.3686 15.445 18.3686C14.9147 18.3686 14.4061 18.1579 14.031 17.783L13.968 17.72L13.495 17.92V18C13.495 18.5296 13.285 19.0375 12.911 19.4124C12.537 19.7874 12.0296 19.9987 11.5 20ZM6.793 15.536C6.92408 15.5361 7.05388 15.5619 7.175 15.612L8.882 16.319C9.06487 16.3946 9.22121 16.5227 9.33122 16.6872C9.44123 16.8517 9.49997 17.0451 9.5 17.243V18H11.5V17.243C11.5 17.0451 11.5588 16.8517 11.6688 16.6872C11.7788 16.5227 11.9351 16.3946 12.118 16.319L13.825 15.612C14.0076 15.5364 14.2084 15.5166 14.4022 15.555C14.596 15.5934 14.7741 15.6884 14.914 15.828L15.449 16.363L16.864 14.95L16.329 14.414C16.1893 14.2742 16.0941 14.0962 16.0555 13.9024C16.0168 13.7086 16.0365 13.5076 16.112 13.325L16.819 11.618C16.8946 11.4351 17.0227 11.2788 17.1872 11.1688C17.3517 11.0588 17.5451 11 17.743 11H18.5V9H17.743C17.5451 8.99997 17.3517 8.94123 17.1872 8.83122C17.0227 8.72121 16.8946 8.56487 16.819 8.382L16.112 6.675C16.0365 6.49235 16.0168 6.29143 16.0555 6.09761C16.0941 5.90379 16.1893 5.72576 16.329 5.586L16.864 5.05L15.45 3.636L14.914 4.171C14.7742 4.31073 14.5962 4.40592 14.4024 4.44454C14.2086 4.48316 14.0076 4.46349 13.825 4.388L12.118 3.681C11.9351 3.60541 11.7788 3.47726 11.6688 3.31278C11.5588 3.1483 11.5 2.95488 11.5 2.757V2H9.5V2.757C9.49997 2.95488 9.44123 3.1483 9.33122 3.31278C9.22121 3.47726 9.06487 3.60541 8.882 3.681L7.175 4.388C6.99235 4.46349 6.79143 4.48316 6.59761 4.44454C6.40379 4.40592 6.22576 4.31073 6.086 4.171L5.55 3.636L4.136 5.05L4.672 5.586C4.81156 5.72587 4.90656 5.90396 4.94501 6.09777C4.98345 6.29159 4.96361 6.49245 4.888 6.675L4.181 8.382C4.10541 8.56487 3.97726 8.72121 3.81278 8.83122C3.6483 8.94123 3.45488 8.99997 3.257 9H2.5V11H3.257C3.45488 11 3.6483 11.0588 3.81278 11.1688C3.97726 11.2788 4.10541 11.4351 4.181 11.618L4.888 13.325C4.96361 13.5076 4.98345 13.7084 4.94501 13.9022C4.90656 14.096 4.81156 14.2741 4.672 14.414L4.137 14.949L5.55 16.364L6.086 15.828C6.27366 15.6408 6.52795 15.5358 6.793 15.536Z" fill="#1F2A37"/>
<path d="M10.5 14C9.70887 14 8.93552 13.7654 8.27772 13.3259C7.61992 12.8864 7.10723 12.2616 6.80448 11.5307C6.50173 10.7998 6.42252 9.99556 6.57686 9.21964C6.7312 8.44372 7.11216 7.73098 7.67157 7.17157C8.23098 6.61216 8.94372 6.2312 9.71964 6.07686C10.4956 5.92252 11.2998 6.00173 12.0307 6.30448C12.7616 6.60723 13.3864 7.11992 13.8259 7.77772C14.2654 8.43552 14.5 9.20887 14.5 10C14.5 11.0609 14.0786 12.0783 13.3284 12.8284C12.5783 13.5786 11.5609 14 10.5 14ZM10.5 8C10.1044 8 9.71776 8.1173 9.38886 8.33706C9.05996 8.55682 8.80362 8.86918 8.65224 9.23463C8.50087 9.60009 8.46126 10.0022 8.53843 10.3902C8.6156 10.7781 8.80608 11.1345 9.08579 11.4142C9.36549 11.6939 9.72186 11.8844 10.1098 11.9616C10.4978 12.0387 10.8999 11.9991 11.2654 11.8478C11.6308 11.6964 11.9432 11.44 12.1629 11.1111C12.3827 10.7822 12.5 10.3956 12.5 10C12.5 9.46957 12.2893 8.96086 11.9142 8.58579C11.5391 8.21071 11.0304 8 10.5 8Z" fill="#1F2A37"/>
</svg>
