<svg width="13" height="14" viewBox="0 0 13 14" fill="none" xmlns="http://www.w3.org/2000/svg">
<g clip-path="url(#clip0_1088_46000)">
<path d="M7.24165 3.34825L0.2951 10.1789C0.0409499 10.4288 0.0409499 10.8328 0.2951 11.0827L2.1333 12.8902C2.26005 13.0149 2.42645 13.0775 2.59285 13.0775C2.75925 13.0775 2.92565 13.0149 3.0524 12.8902L9.99895 6.05956L7.24165 3.34825Z" fill="#1C64F2"/>
<path d="M12.7049 3.39874C12.959 3.14883 12.959 2.74488 12.7049 2.49497L10.8667 0.687433C10.6125 0.437522 10.2017 0.437522 9.9476 0.687433L8.16075 2.44448L10.918 5.15579L12.7049 3.39874Z" fill="#1C64F2"/>
<path d="M10.4 10.9434H9.75V10.3042C9.75 9.95075 9.45945 9.66505 9.1 9.66505C8.74055 9.66505 8.45 9.95075 8.45 10.3042V10.9434H7.8C7.44055 10.9434 7.15 11.2291 7.15 11.5825C7.15 11.936 7.44055 12.2217 7.8 12.2217H8.45V12.8608C8.45 13.2143 8.74055 13.5 9.1 13.5C9.45945 13.5 9.75 13.2143 9.75 12.8608V12.2217H10.4C10.7594 12.2217 11.05 11.936 11.05 11.5825C11.05 11.2291 10.7594 10.9434 10.4 10.9434Z" fill="#1C64F2"/>
<path d="M0.65 5.8301H1.3V6.46926C1.3 6.82271 1.59055 7.10842 1.95 7.10842C2.30945 7.10842 2.6 6.82271 2.6 6.46926V5.8301H3.25C3.60945 5.8301 3.9 5.5444 3.9 5.19094C3.9 4.83749 3.60945 4.55178 3.25 4.55178H2.6V3.91263C2.6 3.55917 2.30945 3.27347 1.95 3.27347C1.59055 3.27347 1.3 3.55917 1.3 3.91263V4.55178H0.65C0.29055 4.55178 0 4.83749 0 5.19094C0 5.5444 0.29055 5.8301 0.65 5.8301Z" fill="#1C64F2"/>
<path d="M11.05 7.74757H9.75V9.02589H11.05V7.74757Z" fill="#1C64F2"/>
<path d="M7.15 0.716834H5.85V1.99515H7.15V0.716834Z" fill="#1C64F2"/>
<path d="M5.2 1.99515H3.9V3.27347H5.2V1.99515Z" fill="#1C64F2"/>
<path d="M3.25 0.716834H1.95V1.99515H3.25V0.716834Z" fill="#1C64F2"/>
<path d="M13 5.8301H11.7V7.10842H13V5.8301Z" fill="#1C64F2"/>
<path d="M13 9.02589H11.7V10.3042H13V9.02589Z" fill="#1C64F2"/>
</g>
<defs>
<clipPath id="clip0_1088_46000">
<rect width="13" height="13" fill="white" transform="translate(0 0.5)"/>
</clipPath>
</defs>
</svg>
