<svg width="45" height="47" viewBox="0 0 45 47" fill="none" xmlns="http://www.w3.org/2000/svg">
<path d="M0.0439396 10.052C-0.0825927 10.4371 0.0728219 10.9249 0.39878 11.1656L6.56127 15.7185L3.73263 23.0427C3.58409 23.42 3.70329 23.8816 4.01504 24.1407C4.33183 24.4034 4.81503 24.4313 5.15933 24.2076L11.1572 20.315V45.0909C11.1572 45.6094 11.5776 46.0298 12.0961 46.0298C12.6146 46.0298 13.035 45.6094 13.035 45.0909V20.315L19.038 24.2108C19.192 24.3094 19.374 24.358 19.5556 24.358C19.7779 24.358 20.0007 24.2855 20.1736 24.1434C20.4867 23.8862 20.6077 23.4255 20.4615 23.0477L17.631 15.7185L23.8132 11.1509C24.1575 10.8965 24.2992 10.4527 24.1653 10.0461C24.0383 9.66097 23.6312 9.36619 23.2259 9.36619H15.5006L13.0172 1.63992C13.0158 1.63671 13.0149 1.6335 13.014 1.63029C12.8861 1.24703 12.5005 0.96875 12.0961 0.96875C11.6881 0.96875 11.2998 1.25161 11.1751 1.63992L8.69169 9.36619H0.991557C0.559696 9.36619 0.178724 9.64171 0.0439396 10.052ZM9.37616 11.244C9.78418 11.244 10.1454 10.9808 10.2701 10.5925L12.0961 4.91142L13.9222 10.5925C14.0468 10.9808 14.4081 11.244 14.8161 11.244H20.527L15.9393 14.6338C15.5992 14.885 15.469 15.3325 15.6216 15.7272L17.6975 21.1021L12.6073 17.7989C12.5769 17.7792 12.5427 17.7705 12.5108 17.7546C12.4807 17.7396 12.4522 17.7249 12.4204 17.7131C12.21 17.6351 11.9823 17.6351 11.7718 17.7131C11.74 17.7249 11.7116 17.7396 11.6815 17.7546C11.6496 17.7705 11.6153 17.7792 11.585 17.7989L6.4948 21.1025L8.57066 15.7272C8.72332 15.3325 8.59312 14.885 8.25295 14.6338L3.66478 11.244H9.37616Z" fill="white"/>
<path d="M35.5464 33.4989C35.4148 33.1216 35.059 32.869 34.6597 32.869H30.419L28.9726 28.3702C28.8475 27.9819 28.4867 27.7188 28.0787 27.7188C27.6706 27.7188 27.3094 27.9819 27.1847 28.3702L25.7387 32.869H21.4976C21.0983 32.869 20.7425 33.1216 20.611 33.4989C20.4794 33.8762 20.6013 34.2952 20.914 34.5437L24.2799 37.2123L22.4993 41.9385C22.3531 42.3268 22.4791 42.7651 22.8092 43.0163C22.977 43.1442 23.1774 43.2084 23.3782 43.2084C23.5721 43.2084 23.766 43.1488 23.9306 43.0287L28.0819 40.0075L32.2817 43.0315C32.6192 43.2749 33.0758 43.2662 33.4045 43.0127C33.7332 42.7587 33.8561 42.319 33.7061 41.9312L31.8824 37.2087L35.2433 34.5437C35.556 34.2952 35.6779 33.8762 35.5464 33.4989ZM30.1742 36.1666C29.8524 36.422 29.7341 36.8575 29.8822 37.2408L30.8174 39.6637L28.6274 38.0866C28.2983 37.8505 27.8545 37.8505 27.5262 38.0894L25.3633 39.6637L26.2788 37.2334C26.4223 36.8515 26.3031 36.4201 25.9835 36.1666L24.1928 34.7468H26.4232C26.8312 34.7468 27.1925 34.4836 27.3172 34.0953L28.0787 31.7256L28.8406 34.0953C28.9658 34.4836 29.3266 34.7468 29.7346 34.7468H31.9649L30.1742 36.1666Z" fill="white"/>
<path d="M44.9477 12.8153C44.8161 12.438 44.4603 12.1854 44.061 12.1854H39.8204L38.3739 7.68661C38.2488 7.29831 37.888 7.03516 37.48 7.03516C37.0719 7.03516 36.7107 7.29831 36.586 7.68661L35.14 12.1854H30.8989C30.4996 12.1854 30.1438 12.438 30.0123 12.8153C29.8807 13.1926 30.0026 13.6116 30.3153 13.8601L33.6812 16.5287L31.9006 21.2549C31.7544 21.6432 31.8805 22.0815 32.2105 22.3327C32.3783 22.4606 32.5787 22.5248 32.7795 22.5248C32.9734 22.5248 33.1673 22.4652 33.3319 22.3451L37.48 19.3267L41.6285 22.3451C41.9641 22.5895 42.4198 22.584 42.7499 22.3327C43.0799 22.0815 43.206 21.6432 43.0598 21.2549L41.2791 16.5287L44.6446 13.8601C44.9573 13.6116 45.0792 13.1926 44.9477 12.8153ZM39.5755 15.483C39.256 15.737 39.1368 16.1679 39.2803 16.5498L40.1963 18.9805L38.0324 17.4062C37.8678 17.2866 37.6739 17.2265 37.48 17.2265C37.286 17.2265 37.0921 17.2866 36.9275 17.4062L34.7641 18.9805L35.6801 16.5498C35.8236 16.1679 35.7044 15.7365 35.3848 15.483L33.5941 14.0632H35.8245C36.2325 14.0632 36.5938 13.8001 36.7185 13.4117L37.48 11.042L38.2419 13.4117C38.3671 13.8 38.7279 14.0632 39.1359 14.0632H41.3663L39.5755 15.483Z" fill="white"/>
</svg>
