<svg width="66" height="24" viewBox="0 0 66 24" fill="none" xmlns="http://www.w3.org/2000/svg">
<path d="M1.14773 18V6.36364H3.25568V16.233H8.38068V18H1.14773ZM13.9261 18.1705C13.0739 18.1705 12.3352 17.983 11.7102 17.608C11.0852 17.233 10.6004 16.7083 10.2557 16.0341C9.91477 15.3598 9.74432 14.572 9.74432 13.6705C9.74432 12.7689 9.91477 11.9792 10.2557 11.3011C10.6004 10.6231 11.0852 10.0966 11.7102 9.72159C12.3352 9.34659 13.0739 9.15909 13.9261 9.15909C14.7784 9.15909 15.517 9.34659 16.142 9.72159C16.767 10.0966 17.25 10.6231 17.5909 11.3011C17.9356 11.9792 18.108 12.7689 18.108 13.6705C18.108 14.572 17.9356 15.3598 17.5909 16.0341C17.25 16.7083 16.767 17.233 16.142 17.608C15.517 17.983 14.7784 18.1705 13.9261 18.1705ZM13.9375 16.5227C14.3996 16.5227 14.786 16.3958 15.0966 16.142C15.4072 15.8845 15.6383 15.5398 15.7898 15.108C15.9451 14.6761 16.0227 14.1951 16.0227 13.6648C16.0227 13.1307 15.9451 12.6477 15.7898 12.2159C15.6383 11.7803 15.4072 11.4337 15.0966 11.1761C14.786 10.9186 14.3996 10.7898 13.9375 10.7898C13.464 10.7898 13.0701 10.9186 12.7557 11.1761C12.4451 11.4337 12.2121 11.7803 12.0568 12.2159C11.9053 12.6477 11.8295 13.1307 11.8295 13.6648C11.8295 14.1951 11.9053 14.6761 12.0568 15.108C12.2121 15.5398 12.4451 15.8845 12.7557 16.142C13.0701 16.3958 13.464 16.5227 13.9375 16.5227ZM23.6491 21.4545C22.9105 21.4545 22.276 21.3542 21.7457 21.1534C21.2154 20.9564 20.7893 20.6913 20.4673 20.358C20.1454 20.0246 19.9219 19.6553 19.7969 19.25L21.6491 18.8011C21.7325 18.9716 21.8537 19.1402 22.0128 19.3068C22.1719 19.4773 22.3859 19.6174 22.6548 19.7273C22.9276 19.8409 23.2704 19.8977 23.6832 19.8977C24.2666 19.8977 24.7495 19.7557 25.1321 19.4716C25.5147 19.1913 25.706 18.7292 25.706 18.0852V16.4318H25.6037C25.4976 16.6439 25.3423 16.8617 25.1378 17.0852C24.937 17.3087 24.67 17.4962 24.3366 17.6477C24.0071 17.7992 23.5923 17.875 23.0923 17.875C22.4219 17.875 21.8139 17.7178 21.2685 17.4034C20.7268 17.0852 20.295 16.6117 19.973 15.983C19.6548 15.3504 19.4957 14.5587 19.4957 13.608C19.4957 12.6496 19.6548 11.8409 19.973 11.1818C20.295 10.5189 20.7287 10.017 21.2741 9.67614C21.8196 9.33144 22.4276 9.15909 23.098 9.15909C23.6094 9.15909 24.0298 9.24621 24.3594 9.42045C24.6927 9.59091 24.9579 9.79735 25.1548 10.0398C25.3518 10.2784 25.5014 10.5038 25.6037 10.7159H25.7173V9.27273H27.7457V18.142C27.7457 18.8883 27.5677 19.5057 27.2116 19.9943C26.8556 20.483 26.3688 20.8485 25.7514 21.0909C25.134 21.3333 24.4332 21.4545 23.6491 21.4545ZM23.6662 16.2614C24.1018 16.2614 24.473 16.1553 24.7798 15.9432C25.0866 15.7311 25.3196 15.4261 25.4787 15.0284C25.6378 14.6307 25.7173 14.1534 25.7173 13.5966C25.7173 13.0473 25.6378 12.5663 25.4787 12.1534C25.3234 11.7405 25.0923 11.4205 24.7855 11.1932C24.4825 10.9621 24.1094 10.8466 23.6662 10.8466C23.2079 10.8466 22.8253 10.9659 22.5185 11.2045C22.2116 11.4432 21.9806 11.7708 21.8253 12.1875C21.67 12.6004 21.5923 13.0701 21.5923 13.5966C21.5923 14.1307 21.67 14.5985 21.8253 15C21.9844 15.3977 22.2173 15.7083 22.5241 15.9318C22.8348 16.1515 23.2154 16.2614 23.6662 16.2614ZM33.6605 18.1705C32.8082 18.1705 32.0696 17.983 31.4446 17.608C30.8196 17.233 30.3348 16.7083 29.9901 16.0341C29.6491 15.3598 29.4787 14.572 29.4787 13.6705C29.4787 12.7689 29.6491 11.9792 29.9901 11.3011C30.3348 10.6231 30.8196 10.0966 31.4446 9.72159C32.0696 9.34659 32.8082 9.15909 33.6605 9.15909C34.5128 9.15909 35.2514 9.34659 35.8764 9.72159C36.5014 10.0966 36.9844 10.6231 37.3253 11.3011C37.67 11.9792 37.8423 12.7689 37.8423 13.6705C37.8423 14.572 37.67 15.3598 37.3253 16.0341C36.9844 16.7083 36.5014 17.233 35.8764 17.608C35.2514 17.983 34.5128 18.1705 33.6605 18.1705ZM33.6719 16.5227C34.134 16.5227 34.5204 16.3958 34.831 16.142C35.1416 15.8845 35.3726 15.5398 35.5241 15.108C35.6795 14.6761 35.7571 14.1951 35.7571 13.6648C35.7571 13.1307 35.6795 12.6477 35.5241 12.2159C35.3726 11.7803 35.1416 11.4337 34.831 11.1761C34.5204 10.9186 34.134 10.7898 33.6719 10.7898C33.1984 10.7898 32.8045 10.9186 32.4901 11.1761C32.1795 11.4337 31.9465 11.7803 31.7912 12.2159C31.6397 12.6477 31.5639 13.1307 31.5639 13.6648C31.5639 14.1951 31.6397 14.6761 31.7912 15.108C31.9465 15.5398 32.1795 15.8845 32.4901 16.142C32.8045 16.3958 33.1984 16.5227 33.6719 16.5227Z" fill="#111928"/>
<path d="M61.6349 17.7657C61.6349 17.8011 61.6215 17.8351 61.5977 17.8602C61.5739 17.8853 61.5417 17.8993 61.508 17.8993H52.6461C52.6125 17.8993 52.5802 17.8853 52.5564 17.8602C52.5326 17.8351 52.5193 17.8011 52.5193 17.7657V8.42909C52.5193 8.39364 52.5326 8.35965 52.5564 8.33458C52.5802 8.30952 52.6125 8.29543 52.6461 8.29543H58.0973L59.6165 6.69478H52.6461C52.2097 6.69521 51.7912 6.87806 51.4826 7.20322C51.174 7.52837 51.0004 7.96925 51 8.42909V17.7657C51.0004 18.2255 51.174 18.6664 51.4826 18.9916C51.7912 19.3167 52.2097 19.4996 52.6461 19.5H61.508C61.9445 19.4996 62.3629 19.3167 62.6716 18.9916C62.9802 18.6664 63.1537 18.2255 63.1541 17.7657V12.0226L61.6349 13.6232V17.7657Z" fill="#6B7280"/>
<path d="M65.3297 5.20297C64.9024 4.75286 64.3228 4.5 63.7185 4.5C63.1143 4.5 62.5347 4.75286 62.1074 5.20297L56.1982 11.4279C56.0923 11.5397 56.0201 11.682 55.9908 11.8369L55.4537 14.6668C55.4312 14.7831 55.4335 14.9032 55.4605 15.0185C55.4874 15.1337 55.5384 15.2412 55.6097 15.3331C55.6809 15.4251 55.7707 15.4991 55.8725 15.55C55.9743 15.6009 56.0855 15.6272 56.1982 15.6272C56.2491 15.627 56.3 15.622 56.3501 15.612L59.0354 15.0462C59.1825 15.0151 59.3176 14.9388 59.4236 14.8269L65.332 8.60196C65.544 8.37879 65.7121 8.11376 65.8267 7.82205C65.9413 7.53035 66.0002 7.21769 66 6.90197C65.9998 6.58625 65.9405 6.27368 65.8255 5.98214C65.7104 5.69061 65.542 5.42583 65.3297 5.20297ZM64.2556 6.33464C64.3262 6.40896 64.3823 6.49723 64.4205 6.59439C64.4587 6.69155 64.4784 6.79569 64.4784 6.90087C64.4784 7.00604 64.4587 7.11019 64.4205 7.20734C64.3823 7.3045 64.3262 7.39277 64.2556 7.4671L63.8484 7.89527L62.7743 6.76361L63.1815 6.33464C63.3239 6.1846 63.5171 6.10031 63.7185 6.10031C63.92 6.10031 64.1132 6.1846 64.2556 6.33464ZM58.5097 13.5208L57.1667 13.8041L57.4356 12.3883L61.7002 7.89527L62.7743 9.02693L58.5097 13.5208Z" fill="#6B7280"/>
</svg>
